<svg xmlns="http://www.w3.org/2000/svg" width="25" height="48" viewBox="0 0 25 48">
    <path fill="#036D58" fill-rule="evenodd" d="M24.077 12.32c.55.047.957.529.909 1.074-.006.078-.7 7.921-1.456 15.736-1.566 16.157-1.832 16.42-2.199 16.785-1.605 1.591-6.268 1.72-7.71 1.72h-.029c-1.405-.002-6.112-.131-7.714-1.72-.368-.366-.612-.608-2.186-16.773-.762-7.818-1.462-15.669-1.47-15.747a.994.994 0 0 1 .91-1.075 1.004 1.004 0 0 1 1.083.9c.992 11.13 2.708 29.073 3.229 31.413.758.511 3.044 1.015 6.15 1.018h.035c3.101 0 5.385-.505 6.141-1.02.535-2.32 2.242-20.28 3.224-31.41a.997.997 0 0 1 1.083-.901zM9.87 43.077a.692.692 0 0 1-.458-.87L22.603.488a.702.702 0 0 1 .877-.455c.369.114.574.504.459.87l-13.193 41.72a.699.699 0 0 1-.877.455zM4.602 5.187a2.12 2.12 0 0 0-.338.975c1.611.09 3.272.01 4.967-.246.446-.067.874-.145 1.19-.366.232-.16.423-.471.344-.714-.054-.168-.236-.333-.54-.49-.792-.412-1.816-.566-2.962-.445-.724.077-2.033.346-2.66 1.287zm5.95 4.625c-.297.091-1.068.368-1.564.892a6.54 6.54 0 0 0 1.797.258c1.006-.015 1.914-.366 2.493-.962-.86-.664-2.19-.354-2.726-.188zm3.17 5.043c-.246.01-.489.098-.678.235.092.01.185.018.278.023.33.024.675-.053.855-.177a1.002 1.002 0 0 0-.455-.08zm-9.634-5.95a4.243 4.243 0 0 1-.782-1.822 21.93 21.93 0 0 1-2.921-.479.496.496 0 1 1 .23-.965c.866.203 1.752.35 2.654.444a3.145 3.145 0 0 1 .5-1.443c.81-1.215 2.29-1.61 3.388-1.725 1.345-.141 2.566.05 3.533.552.551.287.887.635 1.026 1.064.209.638-.088 1.391-.72 1.831-.493.343-1.068.453-1.615.535a25.155 25.155 0 0 1-5.034.262c.11.428.303.831.546 1.158.61.821 1.572 1.466 3.026 2.028l.058.022c.617-.895 1.73-1.333 2.278-1.502.867-.268 2.502-.574 3.693.396.141.115.333.3.379.59.046.283-.064.564-.326.833-.761.787-1.928 1.25-3.2 1.27-.694.012-1.428-.1-2.25-.343-.078.85.669 1.624 1.002 1.924a6.203 6.203 0 0 0 2.366 1.328c.026-.042.053-.082.082-.122.365-.511 1.008-.847 1.676-.877.6-.018 1.143.193 1.497.604a.493.493 0 0 1 .12.35c-.019.32-.16.606-.41.826-.55.484-1.382.474-1.624.46a7.26 7.26 0 0 1-.695-.078c-.038.426.081.898.351 1.306.378.571 1.017 1.045 1.953 1.447.253.109.37.401.26.652a.5.5 0 0 1-.658.258c-1.12-.482-1.902-1.075-2.39-1.813a3.051 3.051 0 0 1-.49-2.076 7.21 7.21 0 0 1-2.71-1.53c-.578-.52-1.517-1.59-1.306-2.905l.014-.083a.82.82 0 0 1-.033-.013c-1.638-.633-2.74-1.384-3.468-2.363z"/>
</svg>
