<svg xmlns="http://www.w3.org/2000/svg" width="25" height="44" viewBox="0 0 25 44">
    <path fill="#006D58" fill-rule="evenodd" d="M23.991 12.321c.55.056.95.542.894 1.087-.007.067-.7 6.818-1.457 13.555-1.57 13.967-1.833 14.228-2.197 14.589-1.605 1.59-6.268 1.72-7.71 1.72h-.03c-1.404-.002-6.111-.132-7.713-1.72-.352-.35-.606-.602-2.185-14.576-.762-6.741-1.462-13.5-1.47-13.567a1.001 1.001 0 0 1 1.99-.202c.988 9.538 2.698 24.954 3.22 27.056.748.513 3.04 1.02 6.162 1.025h.034c3.116 0 5.407-.51 6.152-1.028.535-2.083 2.236-17.514 3.214-27.053a.996.996 0 0 1 1.096-.886zm-12.21 26.793a.693.693 0 0 1-.474-.861L22.499.499a.7.7 0 0 1 1.343.391L12.65 38.644a.7.7 0 0 1-.87.47zM4.419 5.133a2.29 2.29 0 0 0-.366 1.121c1.651.103 3.354.023 5.093-.239.459-.07.898-.15 1.233-.383.257-.18.478-.53.381-.827-.063-.192-.26-.377-.588-.547-.81-.421-1.853-.578-3.02-.456-.741.08-2.083.357-2.733 1.331zm6.003 4.585c-.326.1-1.208.418-1.711 1.039.73.216 1.379.314 1.975.305 1.034-.016 1.97-.38 2.566-.996a.69.69 0 0 0 .067-.078.819.819 0 0 0-.043-.037c-.896-.73-2.295-.406-2.854-.233zm3.195 5.038a1.324 1.324 0 0 0-.905.405c.167.024.335.041.503.052.385.023.787-.073.97-.236a.336.336 0 0 0 .058-.06 1.03 1.03 0 0 0-.626-.16zm-9.549-5.91a4.137 4.137 0 0 1-.776-1.854 21.929 21.929 0 0 1-2.984-.484.397.397 0 1 1 .184-.772c.903.212 1.826.364 2.768.456.037-.543.2-1.06.492-1.497.79-1.183 2.239-1.567 3.316-1.681 1.325-.14 2.525.047 3.475.541.527.274.847.603.978 1.006.195.598-.086 1.305-.683 1.72-.476.331-1.037.438-1.572.518-1.757.265-3.48.35-5.155.254.096.458.298.915.601 1.323.623.837 1.599 1.493 3.07 2.062l.134.05c.59-.914 1.72-1.36 2.268-1.529.848-.262 2.446-.561 3.6.38.128.104.304.272.344.529.061.376-.21.655-.298.747-.744.77-1.886 1.22-3.131 1.24-.72.01-1.474-.108-2.332-.373l-.004.024c-.15.933.665 1.782 1.023 2.103a6.311 6.311 0 0 0 2.48 1.371c.035-.063.074-.123.116-.182.348-.486.96-.806 1.599-.834.56-.018 1.083.182 1.417.569a.396.396 0 0 1 .096.28 1.076 1.076 0 0 1-.377.758c-.414.364-1.075.462-1.551.433a7.06 7.06 0 0 1-.788-.092c-.07.475.05 1.015.354 1.475.39.588 1.043 1.073 1.996 1.483.203.088.296.321.208.522a.4.4 0 0 1-.525.206c-1.102-.473-1.87-1.054-2.347-1.776-.424-.641-.58-1.408-.462-2.092a7.115 7.115 0 0 1-2.754-1.533c-.563-.508-1.478-1.547-1.275-2.815a2.07 2.07 0 0 1 .032-.162l-.113-.043c-1.619-.626-2.707-1.367-3.424-2.33z"/>
</svg>
