<svg xmlns="http://www.w3.org/2000/svg" width="30" height="60"><rect id="backgroundrect" width="100%" height="100%" x="0" y="0" fill="none" stroke="none"/>
    
<g class="currentLayer" style=""><title>Layer 1</title><path fill="#036D58" fill-rule="evenodd" d="M28.802113612637186,15.607816696166992 c0.6542284094036361,0.058921124786138535 1.1383574281083213,0.6631760597229004 1.0812610869890378,1.3464103937149048 c-0.007137037100840682,0.09778399765491486 -0.8326543070136765,9.93009090423584 -1.7319209529164397,19.727294921875 c-1.8627666489771855,20.255077362060547 -2.17917532960044,20.58478546142578 -2.615723934055552,21.0423641204834 c-1.9091574305678591,1.9945428371429443 -7.455824842943969,2.1562626361846924 -9.171092640238044,2.1562626361846924 h-0.03449567802828035 c-1.6712561392210148,-0.0025072821881622076 -7.270261716581274,-0.1642269641160965 -9.17585088727327,-2.1562626361846924 c-0.43773827256405795,-0.45883259177207947 -0.7279777643450984,-0.7622137069702148 -2.6002606237923658,-21.027320861816406 c-0.9064037328552317,-9.800965309143066 -1.7390580398689082,-19.643301010131836 -1.7485741085388042,-19.741085052490234 a1.1823691570814745,1.2461191415786743 0 0 1 1.0824506487478445,-1.3476641178131104 a1.1942641365687052,1.2586555480957031 0 0 1 1.2882351197086734,1.1282768249511719 c1.179990104463954,13.953024864196777 3.22118265105118,36.447105407714844 3.8409155419517447,39.3806266784668 c0.9016456985202836,0.6406105160713196 3.6208566843857,1.272445559501648 7.315463078213327,1.276206612586975 h0.041632716236934986 c3.688658726833779,0 6.4054910145821395,-0.6330887079238892 7.304757164184252,-1.2787138223648071 c0.6363858338226507,-2.908447027206421 2.6668729626814525,-25.42384147644043 3.834967874957897,-39.37686538696289 a1.1859376296576158,1.249880075454712 0 0 1 1.2882351197086734,-1.1295305490493774 zM11.902799674105722,54.16606140136719 a0.8231382383437804,0.8675195574760437 0 0 1 -0.54479383240011,-1.090667724609375 L27.048782675065013,0.774736762046814 a0.835033359631197,0.8800560235977173 0 0 1 1.0431968832095464,-0.5704066753387451 c0.43892776342277173,0.14291507005691528 0.6827765445132314,0.6318351030349731 0.5459833232588238,1.090667724609375 l-15.693154751575435,52.301902770996094 a0.8314648161549627,0.8762950897216797 0 0 1 -1.0431968832095464,0.5704066753387451 zM5.636481571496347,6.6655964851379395 a2.521752950915584,2.6577188968658447 0 0 0 -0.4020530859520406,1.2223000526428223 c1.9162943757201418,0.11282769590616226 3.8920642869772735,0.012536410242319107 5.908277171031045,-0.3083956837654114 c0.5305197648453124,-0.08399394899606705 1.039628410633405,-0.1817779392004013 1.4155124140933708,-0.45883259177207947 c0.2759654242262428,-0.2005825638771057 0.5031611205944309,-0.5904648900032043 0.40919013745446264,-0.8950996398925781 c-0.06423333501538009,-0.21061168611049652 -0.28072345856119085,-0.41746246814727783 -0.6423333590163125,-0.614284098148346 c-0.9420888840172026,-0.5165001153945923 -2.160143192260648,-0.7095608115196228 -3.5233171577694975,-0.5578702688217163 c-0.8612024421232718,0.09653035551309586 -2.4182660409059054,0.43375977873802185 -3.164086522632175,1.6134358644485474 zm7.077561503266111,5.798089504241943 c-0.35328332264393936,0.11408133059740067 -1.270392544127688,0.46133989095687866 -1.860387667259758,1.1182477474212646 a7.77937032691932,8.198812484741211 0 0 0 2.1375426532448074,0.323439359664917 c1.1966432600863186,-0.01880461536347866 2.2767148562166426,-0.45883259177207947 2.965438925923536,-1.2060027122497559 c-1.0229753259111334,-0.8324176073074341 -2.605018587227221,-0.44378891587257385 -3.2425939119085854,-0.23568449914455414 zm3.7707346595864237,6.322112083435059 c-0.2926185266735377,0.012536410242319107 -0.5816685098708412,0.12285681813955307 -0.8064851536215087,0.29460564255714417 c0.10943456814101449,0.012536410242319107 0.22005864486576598,0.022565538063645363 0.33068271272800587,0.028833743184804916 c0.39253705273219097,0.030087385326623917 0.8029166810453674,-0.06644297391176224 1.0170278007174716,-0.22189445793628693 a1.1918851548512777,1.2561482191085815 0 0 0 -0.5412253243739222,-0.10029128193855286 zm-11.459702263241638,-7.459163665771484 a5.0470747289077735,5.3191986083984375 0 0 1 -0.930193833629879,-2.2841339111328125 a26.08587073983381,27.492347717285156 0 0 1 -3.474547536261582,-0.6004940271377563 a0.589995052231977,0.6218059062957764 0 1 1 0.273586424783792,-1.209763526916504 c1.030112341963509,0.25448912382125854 2.0840147847016652,0.43877434730529785 3.1569494356797065,0.5566166043281555 a3.740996891817929,3.9427008628845215 0 0 1 0.594753086566925,-1.8090039491653442 c0.9635000030744223,-1.5231738090515137 2.7239690911004573,-2.018362045288086 4.030046928190302,-2.1625306606292725 c1.599885836897073,-0.1767633855342865 3.0522728221110356,0.06268205493688583 4.2025253006066805,0.6920098066329956 c0.6554179002623499,0.3597949743270874 1.055092004496963,0.7960620522499084 1.2204333608609659,1.3338741064071655 c0.24860679770038452,0.799822986125946 -0.10467654266857807,1.7438147068023682 -0.8564444786884167,2.2954165935516357 c-0.5864265442057892,0.42999884486198425 -1.270392544127688,0.5678994059562683 -1.9210524809551828,0.6706979870796204 a29.92202860195107,31.535341262817383 0 0 1 -5.9879739802660765,0.328453928232193 c0.13084567833572258,0.5365583300590515 0.3604203741463614,1.0417755842208862 0.6494703750686881,1.4517163038253784 c0.7255987826276709,1.029239296913147 1.869903735929654,1.8378376960754395 3.599445707128666,2.542384147644043 l0.0689913560565607,0.027580102905631065 c0.7339252895387602,-1.1220086812973022 2.0578457022095904,-1.6711033582687378 2.709695200795892,-1.882968783378601 c1.0313018328222228,-0.3359757959842682 2.9761445563522386,-0.7195899486541748 4.39284639040423,0.4964418411254883 c0.16772037353147695,0.14416871964931488 0.39610556075837877,0.3760923147201538 0.4508228492601418,0.739648163318634 c0.054717284070507244,0.3547804057598114 -0.07612839869647114,0.707053542137146 -0.38777901839724294,1.0442829132080078 c-0.905214171096425,0.9866154789924622 -2.2933678700388214,1.5670512914657593 -3.8064198107483946,1.592124104499817 c-0.8255172909613009,0.015043692663311958 -1.6986147834718963,-0.12536410987377167 -2.6763888895511627,-0.42999884486198425 c-0.09278148341874282,1.0655949115753174 0.7957796649929918,2.0359129905700684 1.1918851548512777,2.4120054244995117 a7.378506873626179,7.7763352394104 0 0 0 2.814371530764191,1.6648352146148682 c0.03092716113958094,-0.05265292152762413 0.06304382643164308,-0.10279856622219086 0.09753950889117924,-0.15294420719146729 c0.43416976453787015,-0.6406105160713196 1.1990222418037462,-1.0618339776992798 1.9936123450379313,-1.0994430780410767 c0.7137037322403472,-0.022565538063645363 1.359605563832801,0.24195271730422974 1.780690716224541,0.7571991086006165 a0.5864265442057892,0.6180450320243835 0 0 1 0.14274073758555783,0.43877434730529785 c-0.0226006165628172,0.4011651277542114 -0.19032098344741044,0.759706437587738 -0.48769752673087297,1.0355074405670166 c-0.6542284094036361,0.6067622303962708 -1.6438974949701333,0.5942258238792419 -1.9317579695836997,0.5766748785972595 a8.635815089208108,9.101433753967285 0 0 1 -0.8267067818200147,-0.09778399765491486 c-0.0452012331256344,0.5340510606765747 0.09635000030744223,1.1257696151733398 0.4175166798155985,1.6372551918029785 c0.4496333229513816,0.7158290147781372 1.2097277304322631,1.3100547790527344 2.3231054960071305,1.8140186071395874 c0.3009450513096503,0.13664686679840088 0.44011728973153197,0.5027100443840027 0.30927159367078616,0.8173739314079285 a0.594753086566925,0.6268205046653748 0 0 1 -0.7826950528468615,0.323439359664917 c-1.3322469195819195,-0.604254961013794 -2.2624406823117056,-1.3476641178131104 -2.8429198785740653,-2.27285099029541 a3.629183474897161,3.8248589038848877 0 0 1 -0.5828580361796014,-2.6025586128234863 a8.576339553671119,9.038751602172852 0 0 1 -3.2235617745687932,-1.918070673942566 c-0.6875345788481795,-0.6518933176994324 -1.8044808169991882,-1.9932892322540283 -1.5534950553063993,-3.64182710647583 l0.016653086937899575,-0.10405220091342926 a0.9753950534617459,1.0279855728149414 0 0 1 -0.039253703500716774,-0.01629733294248581 c-1.9484111252060643,-0.7935547828674316 -3.259246925730764,-1.7350391149520874 -4.125207331288891,-2.9623537063598633 z" id="svg_1" class="selected"/></g></svg>