<svg xmlns="http://www.w3.org/2000/svg" width="30" height="60" style=""><rect id="backgroundrect" width="100%" height="100%" x="0" y="0" fill="none" stroke="none"/>
    
<g class="currentLayer" style=""><title>Layer 1</title><path fill="#2B3936" fill-rule="nonzero" d="M28.7176456451416,15.531898991666367 c0.6560254693031311,0.05900167539227574 1.1414843797683716,0.6640826824966553 1.0842311382293701,1.3482510607713607 c-0.007156641688197851,0.09791767738879997 -0.8349415063858032,9.94366625338671 -1.7366782426834106,19.75426395155955 c-1.8678834438323975,20.282767918966783 -2.1851611137390137,20.612926759680704 -2.6229090690612793,21.07113097092315 c-1.914401650428772,1.997269560963673 -7.47630500793457,2.1592104458703716 -9.196284294128418,2.1592104458703716 h-0.03459043428301811 c-1.675846815109253,-0.002510709873915773 -7.290232181549072,-0.1644514775066952 -9.201055526733398,-2.1592104458703716 c-0.4389406740665436,-0.459459858198457 -0.7299774289131165,-0.7632557233323496 -2.60740327835083,-21.056067146735586 c-0.9088935256004333,-9.814364131708771 -1.7438349723815918,-19.67015521240046 -1.7533771991729736,-19.768072934553857 a1.1856169700622559,1.2478227012533694 0 0 1 1.0854239463806152,-1.3495064988259173 a1.1975445747375488,1.2603762461931183 0 0 1 1.2917736768722534,1.1298192833219218 c1.1832313537597656,13.972099934714151 3.2300307750701904,36.49693195877262 3.851465940475464,39.43446362337454 c0.9041224122047424,0.6414862896678812 3.630802631378174,1.2741851098151642 7.335557460784912,1.2779513046065745 h0.0417470745742321 c3.698791027069092,0 6.423086166381836,-0.6339541985157098 7.324822425842285,-1.2804619419711685 c0.6381338834762573,-2.9124231422553066 2.6741983890533447,-25.458598210102537 3.8455018997192383,-39.43069718983861 a1.1891952753067017,1.25158877667252 0 0 1 1.2917736768722534,-1.1310747213764785 zM11.771915435791016,54.14283822526522 a0.8253992795944214,0.8687055366379184 0 0 1 -0.5462902784347534,-1.0921587678749347 L26.95949935913086,0.6785416465861829 a0.8373270630836487,0.8812591412637971 0 0 1 1.0460623502731323,-0.5711864738169652 c0.4401334226131439,0.14311044812481555 0.6846520304679871,0.6326988798334128 0.5474830865859985,1.0921587678749347 l-15.736261367797852,52.37340429079268 a0.8337487578392029,0.8774930658446465 0 0 1 -1.0460623502731323,0.5711864738169652 zM5.488384246826172,6.577453464250084 a2.528679847717285,2.6613522434603283 0 0 0 -0.40315747261047363,1.2239710494284282 c1.921558141708374,0.11298194176157139 3.9027552604675293,0.012553548670132031 5.924506187438965,-0.3088172890784051 c0.5319770574569702,-0.08410877646292292 1.042484164237976,-0.18202644639095666 1.4194005727767944,-0.459459858198457 c0.2767234742641449,-0.2008567787221125 0.5045432448387146,-0.5912721099088856 0.4103141129016876,-0.89632332356814 c-0.0644097775220871,-0.21089961168960514 -0.2814945578575134,-0.41803317780312454 -0.6440977454185486,-0.6151238811060864 c-0.9446766972541809,-0.5172062186388189 -2.166076898574829,-0.7105308465226301 -3.5329952239990234,-0.5586329288772163 c-0.8635680675506592,0.09666232140267184 -2.4249086380004883,0.4343527683189592 -3.1727778911590576,1.6156415799252386 zm7.0970025062561035,5.80601602678712 c-0.35425373911857605,0.1142372902869333 -1.2738821506500244,0.46197058509224576 -1.8654979467391968,1.1197764951190265 a7.800739288330078,8.210021016785504 0 0 0 2.143414258956909,0.32388153106887785 c1.1999303102493286,-0.018830323005198046 2.282968759536743,-0.459459858198457 2.9735846519470215,-1.2076514290695286 c-1.0257853269577026,-0.8335555988693955 -2.6121742725372314,-0.4443956162079843 -3.2515008449554443,-0.23600670156910297 zm3.781092405319214,6.330754993125538 c-0.29342231154441833,0.012553548670132031 -0.5832662582397461,0.12302477472906403 -0.808700442314148,0.2950083956132943 c0.1097351685166359,0.012553548670132031 0.22066311538219452,0.022596387233199344 0.33159103989601135,0.02887316156826536 c0.3936153054237366,0.030128517554393497 0.8051221966743469,-0.06653380757866145 1.0198214054107666,-0.22219780810399214 a1.1951590776443481,1.2578654894562646 0 0 0 -0.5427119731903076,-0.10042838936105625 zm-11.491180419921875,-7.4693610297345 a5.060938358306885,5.326470442967548 0 0 1 -0.9327489733695984,-2.2872565326324548 a26.15752410888672,27.52993228955529 0 0 1 -3.4840915203094482,-0.6013149577979107 a0.5916156768798828,0.6226559722582579 0 1 1 0.27433791756629944,-1.2114173851164196 c1.0329419374465942,0.2548370339002588 2.0897393226623535,0.43937419226347174 3.165621042251587,0.5573775505087895 a3.7512729167938232,3.9480908982152414 0 0 1 0.5963867902755737,-1.8114770242320333 c0.9661465883255005,-1.5252561279824022 2.7314515113830566,-2.021121332160874 4.041116714477539,-2.1654870392818566 c1.6042804718017578,-0.17700503736797657 3.060657024383545,0.06276774708104327 4.21406888961792,0.6929558477953037 c0.6572182178497314,0.3602868472058276 1.0579901933670044,0.7971503424185755 1.2237857580184937,1.3356976352038714 c0.24928969144821167,0.8009164178377262 -0.10496407747268677,1.7461986621686947 -0.858797013759613,2.298554639517647 c-0.588037371635437,0.43058669289980855 -1.2738821506500244,0.5686757767662414 -1.9263293743133545,0.6716148930210863 a30.004220962524414,31.57845297975564 0 0 1 -6.004422187805176,0.3289029550133904 c0.13120509684085846,0.5372918547307393 0.3614104092121124,1.0431997874259764 0.6512543559074402,1.4537009337630593 c0.727591872215271,1.0306463618584871 1.875040054321289,1.8403501895306817 3.609332799911499,2.5458598210102537 l0.06918086856603622,0.02761780744732878 c0.7359412908554077,-1.1235425705381772 2.0634982585906982,-1.6733879105225355 2.7171382904052734,-1.8855429751882298 c1.0341346263885498,-0.3364351058516917 2.9843196868896484,-0.7205736944116552 4.404912948608398,0.4971205228607687 c0.16818107664585114,0.1443658115717099 0.3971936106681824,0.37660646756472715 0.4520612061023712,0.7406593305035756 c0.05486758425831795,0.35526542326131505 -0.07633751630783081,0.7080201494719063 -0.38884419202804565,1.04571054416283 c-0.9077006578445435,0.9879642732516629 -2.2996673583984375,1.5691935949576532 -3.816875457763672,1.594300684837151 c-0.8277848958969116,0.015064258777196748 -1.7032806873321533,-0.12553549416208654 -2.6837406158447266,-0.43058669289980855 c-0.09303633868694305,1.0670516779954369 0.7979655861854553,2.0386962712020704 1.1951590776443481,2.415302858139057 a7.39877462387085,7.786966206136412 0 0 0 2.8221023082733154,1.667111197738791 c0.031012114137411118,-0.052724902922401284 0.06321699917316437,-0.10293910133331252 0.09780743718147278,-0.15315329601384065 c0.4353623688220978,-0.6414862896678812 1.2023158073425293,-1.0632856025762862 1.9990885257720947,-1.1009461180232734 c0.7156641483306885,-0.022596387233199344 1.3633402585983276,0.24228348896050989 1.7855820655822754,0.7582342695447721 a0.588037371635437,0.618889956525237 0 0 1 0.14313282072544098,0.43937419226347174 c-0.022662697359919548,0.401713557444225 -0.19084377586841583,0.7607450262816258 -0.4890371561050415,1.0369230746422318 c-0.6560254693031311,0.6075917302677851 -1.648413062095642,0.5950381853280362 -1.937064290046692,0.5774632462868396 a8.659536361694336,9.113876252447426 0 0 1 -0.828977644443512,-0.09791767738879997 c-0.045325394719839096,0.5347811576800154 0.09661465883255005,1.1273086459573278 0.41866353154182434,1.639493470494699 c0.4508683979511261,0.7168076189925046 1.2130507230758667,1.311845744634411 2.329486846923828,1.8164985377057405 c0.30177170038223267,0.1368336756549411 0.44132623076438904,0.5033972953306431 0.3101211190223694,0.8184913568789227 a0.5963867902755737,0.6276774260458353 0 0 1 -0.7848449945449829,0.32388153106887785 c-1.3359063863754272,-0.6050810332170613 -2.268655300140381,-1.3495064988259173 -2.850728988647461,-2.275958187002743 a3.6391522884368896,3.8300878384005728 0 0 1 -0.5844590663909912,-2.6061165502276253 a8.599897384643555,9.051108408376422 0 0 1 -3.2324163913726807,-1.920692853270623 c-0.689423143863678,-0.6527845159253332 -1.8094375133514404,-1.996014242281376 -1.5577622652053833,-3.6468058196612674 l0.01669882982969284,-0.10419444985867443 a0.978074312210083,1.0293909238039305 0 0 1 -0.03936152905225754,-0.01631961289813333 c-1.9537631273269653,-0.7946396453678517 -3.2681996822357178,-1.7374110732758368 -4.136538505554199,-2.9664035168057126 z" id="svg_1" class="selected"/></g></svg>