<svg xmlns="http://www.w3.org/2000/svg" width="100%" height="100%" viewBox="0 0 100 124">
    <g fill="none" fill-rule="evenodd">
        <path fill="#F6ECB0" d="M71.622 57.762c-.595-1.505-1.779-3.111-2.183-4.218-.512-1.409-1.2-1.753-2.023-2.984-.186-.275-.247-.623-.452-.886-.557-.716-2.145-2.603-2.781-3.249-.452-.456-8.133-4.531-10.254-5.217-.58-.188-2.157-.237-2.795-.193-1.853.123-8.195 3.412-9.744 4.453-.321.217-.612.48-.882.764-1.285 1.356-4.391 3.518-5.14 5.238-.478 1.1-1.11 1.71-1.589 2.81-.282.644-1.282 3.758-1.562 4.404-.806 1.85-1.313 3.93-1.202 5.405 0 0 5.021 55.618 6.164 56.804 3.802 3.937 24.364 4.23 28.314.32 1.234-1.224 7.413-56.652 7.413-56.652.38-2.679-.459-4.712-1.284-6.8"/>
        <path fill="#006D58" d="M69.027 57.49a2.234 2.234 0 0 1 1.959 2.474c-6.367 56.79-7.508 57.91-8.188 58.582-3.172 3.125-11.87 3.454-15.365 3.454-.244 0-.461 0-.653-.003-2.893-.037-12.594-.417-15.886-3.809-.682-.704-1.714-1.766-6.885-58.749a2.234 2.234 0 0 1 2.01-2.433c1.223-.09 2.305.797 2.414 2.027 1.795 19.76 4.924 51.69 5.955 56.285 1.532 1.054 6.148 2.123 12.449 2.202 6.343.074 10.987-.895 12.543-1.926 1.158-4.53 4.98-36.414 7.19-56.13a2.233 2.233 0 0 1 2.457-1.974zm-25.81 56.435a1.704 1.704 0 0 1-1.141-2.132l24.558-79.585a1.723 1.723 0 0 1 2.15-1.132 1.705 1.705 0 0 1 1.14 2.131l-24.559 79.587a1.723 1.723 0 0 1-2.148 1.13zM29.823 40.963a4.385 4.385 0 0 0-.705 1.922c3.336.222 6.78.086 10.293-.408.928-.13 1.81-.285 2.464-.733.526-.36.835-.977.702-1.404-.103-.332-.465-.666-1.074-.997-1.634-.88-3.764-1.225-6.143-.998-1.503.144-4.221.674-5.537 2.618zm12.3 9.957c-.596.179-2.118.711-3.154 1.723 1.31.374 2.499.537 3.589.542 2.044-.007 3.9-.691 5.11-1.88-1.76-1.314-4.446-.714-5.545-.385zm6.497 10.747a2.555 2.555 0 0 0-1.169.332c.107.009.219.02.329.028.585.04 1.203-.06 1.59-.253a2.116 2.116 0 0 0-.75-.107zM28.513 48.818a9.12 9.12 0 0 1-1.6-3.843 46.079 46.079 0 0 1-6.05-1.076 1.139 1.139 0 0 1 .549-2.209c1.776.443 3.593.772 5.447.987.13-1.085.489-2.11 1.085-2.99 1.745-2.581 4.88-3.386 7.201-3.607 2.828-.276 5.402.165 7.434 1.26 1.168.63 1.878 1.394 2.166 2.325.432 1.393-.22 3.019-1.586 3.957-1.059.726-2.277.947-3.432 1.108-3.558.5-7.05.646-10.445.444.22.853.599 1.656 1.074 2.314 1.25 1.74 3.236 3.116 6.251 4.332.021.007.039.016.06.025.978-1.367 2.632-2.454 4.806-3.105 1.841-.552 5.306-1.164 7.807.943.17.144.705.588.811 1.31.09.631-.152 1.245-.725 1.83-1.632 1.664-4.109 2.625-6.798 2.637h-.056c-1.422 0-2.907-.24-4.567-.749-.108 1.717 1.367 3.293 2.034 3.914a12.893 12.893 0 0 0 4.825 2.823c.046-.07.093-.138.14-.205.792-1.092 2.17-1.8 3.597-1.85 1.255-.056 2.445.445 3.194 1.344.189.224.283.513.262.807a2.572 2.572 0 0 1-.907 1.796c-1.188 1.036-2.96.996-3.475.956a14.188 14.188 0 0 1-1.362-.163c-.058.922.23 1.894.693 2.618.77 1.2 2.083 2.207 4.017 3.073.573.258.828.93.573 1.504a1.133 1.133 0 0 1-1.5.574c-2.35-1.054-3.986-2.337-5.003-3.922-.877-1.374-1.216-2.953-1.013-4.397a15.132 15.132 0 0 1-5.585-3.292c-1.213-1.127-3.173-3.437-2.694-6.253.007-.037.012-.072.017-.107-3.43-1.385-5.734-3.01-7.245-5.113z"/>
        <path fill="#FAC53C" d="M80.503 49.114a.69.69 0 0 1-.591-.33l-1.064-1.745c-.127.778-.238 1.54-.272 2.307a.687.687 0 0 1-.69.654l-.028-.002a.685.685 0 0 1-.662-.71c.048-1.088.23-2.16.407-3.195l.005-.023c-.975.572-1.955 1.16-2.982 1.8a.695.695 0 0 1-.951-.217.682.682 0 0 1 .219-.945c1.022-.635 2-1.222 2.968-1.793a12.972 12.972 0 0 0-3.107-.095.7.7 0 0 1-.752-.617.692.692 0 0 1 .624-.745 14.16 14.16 0 0 1 3.066.045l-1.587-2.606a.678.678 0 0 1 .233-.938.691.691 0 0 1 .947.23l1.697 2.786c.075-1.08.104-2.161.029-3.243a.686.686 0 0 1 .64-.73c.384-.027.709.26.736.635.088 1.28.077 2.57-.032 3.848 1.17-.656 2.355-1.304 3.63-1.971a.693.693 0 0 1 .934.284.681.681 0 0 1-.287.924 153.317 153.317 0 0 0-3.066 1.656c.535.134 1.065.254 1.602.322a.681.681 0 0 1 .597.764.685.685 0 0 1-.771.592c-.845-.105-1.663-.317-2.456-.53l1.554 2.55a.682.682 0 0 1-.59 1.038zM14.987 69.51a.695.695 0 0 1 .934.287.683.683 0 0 1-.289.923c-1.07.561-2.077 1.107-3.065 1.655.533.135 1.065.255 1.602.323.379.048.647.39.6.765a.69.69 0 0 1-.772.593c-.847-.109-1.665-.319-2.46-.532l1.557 2.55a.682.682 0 0 1-.59 1.038.69.69 0 0 1-.592-.329l-1.064-1.744c-.127.778-.24 1.539-.272 2.305a.688.688 0 0 1-.688.656l-.03-.002a.685.685 0 0 1-.661-.712c.048-1.09.23-2.16.405-3.196.002-.009.004-.015.004-.022-.973.573-1.954 1.16-2.98 1.798a.692.692 0 0 1-.951-.215.682.682 0 0 1 .217-.944c1.023-.636 2.002-1.22 2.97-1.792a12.969 12.969 0 0 0-3.107-.096.696.696 0 0 1-.752-.617.687.687 0 0 1 .622-.746 14.273 14.273 0 0 1 3.067.047l-1.587-2.606a.677.677 0 0 1 .231-.94.694.694 0 0 1 .95.231l1.696 2.785c.075-1.08.104-2.165.03-3.243a.683.683 0 0 1 .64-.728.685.685 0 0 1 .736.633 24.91 24.91 0 0 1-.034 3.848c1.17-.656 2.357-1.303 3.633-1.973zm21-51.999a.694.694 0 0 1 .934.285.683.683 0 0 1-.289.924 148.5 148.5 0 0 0-3.065 1.656c.534.136 1.066.255 1.601.323.378.047.647.39.599.764a.686.686 0 0 1-.772.594c-.846-.107-1.662-.32-2.457-.533l1.556 2.552a.684.684 0 0 1-.59 1.037.69.69 0 0 1-.592-.329l-1.064-1.744c-.126.778-.24 1.54-.271 2.306a.688.688 0 0 1-.69.654h-.03a.686.686 0 0 1-.66-.714c.047-1.086.229-2.158.406-3.192a.13.13 0 0 0 .004-.026c-.973.573-1.955 1.162-2.981 1.8a.694.694 0 0 1-.95-.217.682.682 0 0 1 .218-.945c1.02-.634 1.997-1.22 2.967-1.79a12.962 12.962 0 0 0-3.107-.097c-.354.044-.715-.24-.751-.619a.687.687 0 0 1 .624-.744 14.596 14.596 0 0 1 3.067.05l-1.588-2.61a.678.678 0 0 1 .231-.94.694.694 0 0 1 .95.233l1.696 2.784c.075-1.08.104-2.165.03-3.244a.684.684 0 0 1 .639-.729c.367-.013.71.258.737.636a25.123 25.123 0 0 1-.034 3.847 149.85 149.85 0 0 1 3.632-1.972zm-15.54 32.857a.378.378 0 0 1 .51.157.372.372 0 0 1-.158.503c-.585.307-1.132.605-1.672.904.293.073.582.138.873.175a.38.38 0 0 1 .328.418.379.379 0 0 1-.375.325c-.015 0-.03 0-.045-.003-.464-.057-.908-.172-1.342-.289l.847 1.392a.37.37 0 0 1-.128.512.375.375 0 0 1-.516-.127l-.58-.95c-.07.423-.131.838-.15 1.257a.373.373 0 0 1-.373.358c-.007 0-.012 0-.017-.002a.373.373 0 0 1-.36-.388c.025-.593.125-1.175.22-1.742.002-.003.002-.01.004-.013a66.65 66.65 0 0 0-1.627.982.38.38 0 0 1-.52-.119.371.371 0 0 1 .122-.515 79.957 79.957 0 0 1 1.603-.968 7.186 7.186 0 0 0-1.68-.062.365.365 0 0 1-.41-.338.372.372 0 0 1 .34-.405 7.608 7.608 0 0 1 1.686.047l-.882-1.444a.372.372 0 0 1 .13-.511.38.38 0 0 1 .516.126l.927 1.519c.039-.589.055-1.18.015-1.769a.377.377 0 0 1 .35-.398c.212-.002.387.142.402.348.047.7.025 1.404-.037 2.105a89.449 89.449 0 0 1 2-1.085zM11.41 7.173c-.237.016-.39-.134-.408-.337a.373.373 0 0 1 .34-.405 7.606 7.606 0 0 1 1.686.045l-.881-1.442a.372.372 0 0 1 .13-.514.378.378 0 0 1 .514.127l.927 1.519c.04-.589.055-1.18.017-1.77a.373.373 0 0 1 .35-.396c.208.002.386.142.4.347.049.7.025 1.405-.036 2.107.643-.36 1.296-.717 1.999-1.085a.373.373 0 1 1 .353.659c-.586.306-1.134.604-1.674.903.293.073.582.138.873.177a.374.374 0 0 1 .328.416.379.379 0 0 1-.373.327l-.047-.003a9.952 9.952 0 0 1-1.34-.29l.847 1.392a.37.37 0 0 1-.128.512.376.376 0 0 1-.516-.127l-.58-.95c-.07.423-.132.838-.15 1.257a.373.373 0 0 1-.375.358c-.005 0-.01 0-.017-.002a.373.373 0 0 1-.36-.388c.027-.594.124-1.175.222-1.74l.002-.016c-.53.314-1.067.634-1.627.982a.374.374 0 0 1-.198.057.383.383 0 0 1-.32-.175.372.372 0 0 1 .12-.515c.551-.344 1.08-.659 1.602-.969a7.184 7.184 0 0 0-1.68-.061zm52.037-5.804a.38.38 0 0 1 .51.156.373.373 0 0 1-.156.504 80.17 80.17 0 0 0-1.674.903c.293.074.582.139.873.176a.377.377 0 0 1 .328.416.377.377 0 0 1-.373.327c-.016 0-.032 0-.048-.003-.462-.057-.906-.172-1.34-.289l.847 1.39a.372.372 0 0 1-.323.568.38.38 0 0 1-.323-.18l-.578-.95c-.07.421-.131.838-.15 1.255a.375.375 0 0 1-.375.358c-.005 0-.01 0-.015-.002a.374.374 0 0 1-.362-.386c.027-.594.126-1.177.22-1.74l.004-.016c-.532.313-1.067.634-1.627.98a.362.362 0 0 1-.199.059.386.386 0 0 1-.32-.175.374.374 0 0 1 .12-.515c.552-.344 1.08-.66 1.605-.97a7.006 7.006 0 0 0-1.682-.06c-.224.01-.39-.134-.407-.34a.372.372 0 0 1 .34-.404 7.8 7.8 0 0 1 1.685.046l-.881-1.443a.372.372 0 0 1 .13-.514.382.382 0 0 1 .516.127l.925 1.52c.04-.59.057-1.182.017-1.77a.374.374 0 0 1 .35-.397c.224.012.387.142.4.347.049.7.025 1.405-.035 2.107a88.615 88.615 0 0 1 1.998-1.085zM99.438 53.68a.392.392 0 0 1-.164.53c-.606.32-1.178.634-1.74.949.305.077.606.145.91.183a.39.39 0 0 1 .34.438.394.394 0 0 1-.389.343c-.015 0-.031 0-.049-.002a10.61 10.61 0 0 1-1.394-.304l.882 1.46a.394.394 0 0 1-.336.594.392.392 0 0 1-.336-.19l-.604-.998c-.072.446-.135.882-.152 1.321a.394.394 0 0 1-.392.375h-.018a.393.393 0 0 1-.374-.41c.028-.621.13-1.234.229-1.825.002-.005.002-.012.003-.018-.55.33-1.11.665-1.692 1.031a.391.391 0 1 1-.415-.665c.576-.36 1.126-.691 1.67-1.017a7.313 7.313 0 0 0-1.75-.064c-.24.012-.404-.14-.425-.354a.391.391 0 0 1 .355-.425 7.944 7.944 0 0 1 1.753.047l-.915-1.515a.39.39 0 0 1 .668-.403l.965 1.594c.044-.62.058-1.24.016-1.858a.39.39 0 0 1 .362-.418c.238.008.404.15.42.364.05.735.026 1.477-.039 2.215.672-.38 1.35-.754 2.081-1.14a.391.391 0 0 1 .53.162zm-14.99 17.688a.376.376 0 0 1 .509.156.372.372 0 0 1-.157.504c-.585.307-1.133.605-1.673.903.292.072.582.139.874.176a.376.376 0 0 1 .327.416.377.377 0 0 1-.42.324c-.463-.057-.908-.172-1.342-.289l.85 1.39a.375.375 0 0 1-.325.568.375.375 0 0 1-.321-.18l-.58-.952c-.07.423-.132.84-.15 1.258a.373.373 0 0 1-.375.357h-.015a.374.374 0 0 1-.36-.388c.025-.594.124-1.177.22-1.743.002-.005.002-.01.002-.015-.532.314-1.065.634-1.627.982a.377.377 0 0 1-.518-.118.37.37 0 0 1 .12-.513c.553-.344 1.08-.66 1.604-.97a7.02 7.02 0 0 0-1.68-.06.373.373 0 1 1-.071-.743 7.85 7.85 0 0 1 1.689.045l-.882-1.443a.37.37 0 0 1 .13-.512.378.378 0 0 1 .515.127l.925 1.518c.04-.59.057-1.18.017-1.769a.375.375 0 0 1 .35-.398c.213.012.387.142.402.347.047.702.023 1.405-.037 2.107a85.693 85.693 0 0 1 1.998-1.085zm-31-46a.38.38 0 0 1 .509.157.372.372 0 0 1-.157.503c-.586.307-1.135.607-1.673.904.293.073.582.138.873.175a.379.379 0 0 1 .328.416.379.379 0 0 1-.375.327l-.046-.003c-.464-.057-.906-.172-1.34-.289l.848 1.39a.372.372 0 0 1-.323.568.375.375 0 0 1-.323-.18l-.58-.952c-.07.423-.131.84-.15 1.258a.373.373 0 0 1-.373.357h-.017a.374.374 0 0 1-.36-.388c.025-.596.124-1.18.222-1.746l.002-.012c-.533.316-1.068.636-1.627.982a.377.377 0 0 1-.52-.118.37.37 0 0 1 .122-.513c.55-.344 1.078-.659 1.603-.969a6.911 6.911 0 0 0-1.679-.062.381.381 0 0 1-.41-.336.371.371 0 0 1 .34-.406 7.717 7.717 0 0 1 1.686.047l-.88-1.445a.37.37 0 0 1 .129-.512.381.381 0 0 1 .516.127l.925 1.518c.04-.586.055-1.18.015-1.77a.375.375 0 0 1 .35-.397.384.384 0 0 1 .402.347 13.77 13.77 0 0 1-.036 2.107c.641-.358 1.294-.715 1.998-1.085zm32.54-11.858a.695.695 0 0 1 .933.285.686.686 0 0 1-.287.925 145.137 145.137 0 0 0-3.067 1.656c.535.134 1.066.254 1.601.322a.684.684 0 1 1-.173 1.357c-.845-.108-1.662-.32-2.457-.532l1.556 2.55a.682.682 0 0 1-.59 1.038.693.693 0 0 1-.594-.329l-1.062-1.744c-.126.778-.24 1.54-.272 2.305a.69.69 0 0 1-.689.656l-.029-.002a.687.687 0 0 1-.662-.711c.048-1.09.23-2.161.407-3.197 0-.008.002-.015.004-.022-.975.573-1.955 1.161-2.981 1.798a.692.692 0 0 1-.95-.215.682.682 0 0 1 .218-.944c1.02-.635 1.999-1.22 2.969-1.791a12.984 12.984 0 0 0-3.108-.097c-.362.046-.715-.24-.752-.617a.69.69 0 0 1 .622-.745 14.269 14.269 0 0 1 3.067.047l-1.587-2.606a.679.679 0 0 1 .232-.94.692.692 0 0 1 .948.231l1.698 2.785c.075-1.08.104-2.164.029-3.244a.681.681 0 0 1 .64-.727.682.682 0 0 1 .737.634 25.124 25.124 0 0 1-.034 3.847c1.17-.656 2.355-1.302 3.632-1.973zm-80.4 29.127a.693.693 0 0 1-.69.662l-.03-.002a.693.693 0 0 1-.663-.722c.05-1.098.232-2.18.408-3.226l.006-.027c-.978.58-1.958 1.174-2.988 1.82a.691.691 0 0 1-.735-1.174 149.217 149.217 0 0 1 2.975-1.812 12.72 12.72 0 0 0-3.115-.098c-.358.043-.716-.243-.754-.624a.698.698 0 0 1 .624-.754 14.184 14.184 0 0 1 3.075.05l-1.59-2.639a.692.692 0 0 1 1.183-.715l1.702 2.817c.073-1.092.103-2.189.027-3.281a.691.691 0 0 1 .643-.737.696.696 0 0 1 .739.641 25.424 25.424 0 0 1-.036 3.891 144.666 144.666 0 0 1 3.641-1.993.694.694 0 0 1 .936.288.694.694 0 0 1-.29.936c-1.073.567-2.08 1.12-3.072 1.673.539.135 1.068.259 1.608.326a.692.692 0 1 1-.175 1.373c-.848-.108-1.666-.323-2.463-.537l1.558 2.578a.696.696 0 0 1-.235.952.69.69 0 0 1-.356.098.69.69 0 0 1-.593-.333L5.86 40.305c-.125.787-.238 1.557-.272 2.333z"/>
    </g>
</svg>
