<svg xmlns="http://www.w3.org/2000/svg" width="100%" height="100%" viewBox="0 0 68 92">
    <g fill="none" fill-rule="evenodd">
        <path fill="#F6ECB0" d="M31.93 89.464c4.16 1.914 26.593 2.1 30.886.215.246-.108.664-1.09 1.184-2.62-.179-.693-.59-1.315-.997-1.945-.471-.73-1.407-1.505-1.726-2.042-.406-.682-.948-.85-1.6-1.443-.145-.135-.196-.304-.357-.43-.442-.346-1.697-1.26-2.201-1.573-.355-.221-6.43-2.194-8.108-2.526-.458-.092-1.706-.113-2.21-.093-1.467.059-6.481 1.651-7.705 2.155a4.236 4.236 0 0 0-.698.37c-1.014.657-3.472 1.703-4.065 2.536-.378.532-.877.827-1.257 1.36-.221.313-1.013 1.82-1.235 2.132-.4.565-.69 1.165-.841 1.716.399 1.283.725 2.093.93 2.188"/>
        <path fill="#006D58" d="M65.47 26.922c1.224.14 2.103 1.26 1.965 2.497-6.386 57.288-7.53 58.42-8.212 59.097C56.041 91.668 47.317 92 43.813 92c-.245 0-.462 0-.654-.002-2.903-.038-12.631-.422-15.933-3.844-.684-.708-1.72-1.782-6.905-59.266-.112-1.242.79-2.341 2.016-2.454a2.252 2.252 0 0 1 2.42 2.044c1.8 19.934 4.94 52.145 5.973 56.781 1.536 1.063 6.166 2.141 12.485 2.221 6.362.075 11.02-.901 12.58-1.943 1.162-4.57 4.995-36.734 7.212-56.625.137-1.238 1.25-2.126 2.463-1.99zM38.604 83.21a1.71 1.71 0 0 1-1.142-2.138l24.572-79.82a1.724 1.724 0 0 1 2.15-1.136 1.711 1.711 0 0 1 1.143 2.138L40.753 82.076a1.722 1.722 0 0 1-2.15 1.134zm-13.78-72.245a4.378 4.378 0 0 0-.706 1.922c3.336.22 6.78.084 10.293-.41.928-.13 1.81-.283 2.464-.733.526-.36.835-.975.702-1.404-.103-.33-.465-.666-1.074-.997-1.634-.879-3.764-1.225-6.143-.998-1.503.144-4.221.674-5.537 2.62zm12.299 9.955c-.596.18-2.118.711-3.154 1.724 1.31.373 2.499.536 3.589.541 2.044-.007 3.9-.691 5.11-1.88-1.76-1.314-4.446-.712-5.545-.385zm6.497 10.748a2.532 2.532 0 0 0-1.169.331c.107.01.219.02.329.028.585.042 1.203-.06 1.59-.253a2.07 2.07 0 0 0-.75-.106zm-20.107-12.85a9.11 9.11 0 0 1-1.6-3.843 45.507 45.507 0 0 1-6.05-1.076 1.138 1.138 0 0 1 .549-2.209c1.776.444 3.593.772 5.447.989.13-1.085.489-2.111 1.085-2.99 1.745-2.583 4.88-3.388 7.201-3.609 2.828-.276 5.402.165 7.434 1.26 1.168.632 1.878 1.394 2.166 2.325.432 1.393-.22 3.02-1.586 3.959-1.059.726-2.277.945-3.432 1.106-3.558.5-7.05.648-10.445.444.22.853.599 1.658 1.074 2.316 1.25 1.738 3.236 3.114 6.251 4.33.021.007.039.018.06.025.978-1.367 2.632-2.452 4.806-3.104 1.841-.55 5.306-1.163 7.807.942.17.144.705.588.811 1.313.09.63-.152 1.242-.725 1.827-1.632 1.666-4.109 2.625-6.798 2.64h-.056c-1.422 0-2.907-.242-4.567-.752-.108 1.717 1.367 3.293 2.034 3.914a12.87 12.87 0 0 0 4.825 2.823c.046-.068.093-.138.14-.205.792-1.092 2.17-1.799 3.597-1.85 1.255-.056 2.445.445 3.194 1.344.189.224.283.515.262.807a2.572 2.572 0 0 1-.907 1.796c-1.188 1.036-2.96.998-3.475.956a14.764 14.764 0 0 1-1.362-.161c-.058.92.23 1.893.693 2.616.77 1.203 2.083 2.207 4.017 3.073.573.258.828.932.573 1.504a1.133 1.133 0 0 1-1.5.574c-2.35-1.054-3.986-2.337-5.003-3.922-.877-1.374-1.216-2.953-1.013-4.395-2.067-.68-3.98-1.8-5.585-3.294-1.213-1.127-3.173-3.437-2.694-6.253.007-.035.012-.07.017-.107-3.43-1.385-5.734-3.009-7.245-5.113z"/>
        <path fill="#FAC53C" d="M10.009 31.375a149.766 149.766 0 0 0-3.641 1.891 22.85 22.85 0 0 0 .034-3.689c-.026-.362-.355-.632-.737-.607-.382.022-.669.336-.643.697.076 1.035.046 2.075-.027 3.11l-1.703-2.67a.714.714 0 0 0-.951-.22.634.634 0 0 0-.231.9l1.59 2.497a15.062 15.062 0 0 0-3.073-.044c-.38.034-.659.353-.624.715.036.36.394.632.754.592a13.578 13.578 0 0 1 3.113.092c-.97.548-1.95 1.109-2.976 1.718a.638.638 0 0 0-.218.905.717.717 0 0 0 .953.206c1.03-.61 2.011-1.174 2.987-1.724 0 .007-.002.013-.004.021-.176.993-.358 2.02-.406 3.065-.017.363.28.666.662.683l.03.001c.368 0 .674-.276.69-.629.032-.734.147-1.464.274-2.21l1.065 1.67a.697.697 0 0 0 .593.318.71.71 0 0 0 .356-.094.638.638 0 0 0 .235-.9l-1.56-2.446c.797.203 1.617.406 2.465.51a.682.682 0 0 0 .773-.569c.049-.36-.22-.687-.6-.734a13.643 13.643 0 0 1-1.606-.31c.991-.524 2-1.047 3.072-1.585a.643.643 0 0 0 .29-.887.713.713 0 0 0-.936-.273"/>
    </g>
</svg>
