<svg xmlns="http://www.w3.org/2000/svg" width="100%" height="100%" viewBox="0 0 74 118">
    <g fill="none" fill-rule="evenodd">
        <path fill="#F6ECB0" d="M72.205 83.87c-.529-1.307-1.58-2.7-1.938-3.664-.456-1.224-1.065-1.523-1.797-2.59-.164-.241-.22-.544-.4-.77-.496-.623-1.905-2.26-2.47-2.821-.4-.4-7.22-3.937-9.103-4.533-.513-.164-1.914-.204-2.48-.17-1.646.11-7.276 2.966-8.65 3.869a4.81 4.81 0 0 0-.783.664c-1.14 1.178-3.899 3.059-4.564 4.55-.425.957-.984 1.485-1.409 2.44-.25.561-1.138 3.267-1.388 3.827-.715 1.609-1.167 3.412-1.065 4.696 0 0 1.193 12.95 2.486 25.584 4.762 3.289 27.282 3.543 31.653.205l.025-.033c1.563-12.546 3.022-25.346 3.022-25.346.335-2.328-.407-4.094-1.14-5.908"/>
        <path fill="#006D58" d="M70.565 51.14a2.245 2.245 0 0 1 1.98 2.483c-6.431 56.955-7.583 58.08-8.272 58.754-3.203 3.134-11.992 3.464-15.52 3.464-.246 0-.467-.002-.66-.004-2.924-.038-12.723-.42-16.047-3.821-.691-.705-1.734-1.772-6.957-58.921a2.243 2.243 0 0 1 2.032-2.438c1.235-.092 2.328.798 2.438 2.03 1.812 19.818 4.973 51.842 6.014 56.452 1.55 1.055 6.211 2.13 12.578 2.207 6.406.076 11.097-.896 12.669-1.932 1.172-4.543 5.031-36.52 7.264-56.295a2.255 2.255 0 0 1 2.481-1.979zM44.58 107.171a1.682 1.682 0 0 1-1.115-2.103L67.508 26.54a1.684 1.684 0 1 1 3.222.986l-24.045 78.53a1.688 1.688 0 0 1-2.105 1.115zM30.45 36.026a4.343 4.343 0 0 0-.698 1.896c3.3.218 6.703.085 10.175-.404.916-.127 1.79-.28 2.435-.723.52-.354.824-.962.693-1.383-.1-.328-.458-.658-1.06-.985-1.617-.868-3.72-1.208-6.072-.986-1.485.142-4.172.665-5.474 2.585zm12.157 9.822c-.588.178-2.094.703-3.116 1.7 1.295.369 2.467.53 3.545.536 2.02-.009 3.854-.684 5.052-1.856-1.74-1.297-4.395-.703-5.48-.38zm6.42 10.604a2.54 2.54 0 0 0-1.155.326c.107.01.218.02.325.028.578.041 1.191-.059 1.571-.25a2.045 2.045 0 0 0-.74-.104zM29.154 43.774a9.001 9.001 0 0 1-1.581-3.792 45.38 45.38 0 0 1-5.98-1.06c-.6-.15-.965-.76-.818-1.36.148-.605.76-.968 1.362-.82 1.756.438 3.552.76 5.382.975.13-1.07.485-2.083 1.073-2.95 1.726-2.546 4.824-3.342 7.117-3.558 2.796-.275 5.34.16 7.349 1.243 1.155.622 1.855 1.373 2.141 2.291.427 1.377-.217 2.98-1.568 3.906-1.046.717-2.25.934-3.391 1.092-3.52.493-6.97.638-10.324.438.217.841.592 1.635 1.06 2.285 1.236 1.714 3.198 3.071 6.18 4.272.02.008.038.017.059.024.965-1.349 2.602-2.42 4.75-3.062 1.818-.544 5.242-1.148 7.717.93.167.14.694.58.8 1.294.089.622-.151 1.226-.716 1.803-1.612 1.644-4.06 2.592-6.718 2.604h-.057c-1.406 0-2.874-.238-4.514-.74-.105 1.693 1.352 3.247 2.01 3.86a12.716 12.716 0 0 0 4.77 2.785c.046-.067.09-.136.139-.202.782-1.077 2.145-1.775 3.555-1.825 1.238-.055 2.414.439 3.157 1.326.185.221.28.508.259.798a2.542 2.542 0 0 1-.896 1.772c-1.176 1.02-2.927.982-3.437.942-.45-.032-.9-.088-1.345-.16-.058.91.227 1.868.684 2.581.762 1.186 2.06 2.178 3.972 3.032.564.254.818.919.566 1.484a1.124 1.124 0 0 1-1.027.663c-.152 0-.308-.03-.458-.095-2.32-1.042-3.939-2.305-4.942-3.872-.867-1.353-1.202-2.913-1.003-4.335a14.966 14.966 0 0 1-5.52-3.25c-1.199-1.112-3.136-3.391-2.661-6.168l.017-.107h-.002c-3.39-1.366-5.665-2.968-7.16-5.044z"/>
        <path fill="#FAC53C" d="M15.614 65.465a.696.696 0 1 1 .65 1.233 150.38 150.38 0 0 0-3.094 1.685c.54.138 1.076.26 1.618.328a.7.7 0 0 1 .605.78.7.7 0 0 1-.779.605c-.855-.11-1.68-.326-2.483-.542l1.571 2.599a.699.699 0 0 1-.595 1.056.697.697 0 0 1-.598-.336l-1.074-1.775c-.128.792-.242 1.567-.274 2.348a.697.697 0 0 1-.696.668l-.03-.002a.695.695 0 0 1-.666-.725c.048-1.11.231-2.201.41-3.258 0-.007 0-.014.003-.023a160.38 160.38 0 0 0-3.01 1.834.685.685 0 0 1-.37.107.704.704 0 0 1-.59-.326.7.7 0 0 1 .22-.962 150.3 150.3 0 0 1 2.998-1.825 12.974 12.974 0 0 0-3.135-.098c-.363.043-.724-.246-.76-.629a.697.697 0 0 1 .628-.76c1.031-.096 2.07-.08 3.096.047L7.655 64.84a.698.698 0 1 1 1.193-.722l1.713 2.837c.076-1.1.106-2.205.03-3.305a.694.694 0 0 1 .647-.74.695.695 0 0 1 .743.645 25.61 25.61 0 0 1-.035 3.92c1.181-.668 2.38-1.328 3.668-2.01zm21-52.675a.697.697 0 0 1 .651 1.233c-1.082.571-2.098 1.129-3.094 1.687.539.138 1.076.259 1.616.328a.697.697 0 0 1-.174 1.383c-.855-.11-1.678-.325-2.481-.542l1.57 2.598a.698.698 0 0 1-1.192.722l-1.074-1.777c-.128.793-.244 1.568-.275 2.347a.699.699 0 0 1-.696.668h-.03a.697.697 0 0 1-.667-.727c.048-1.107.231-2.198.41-3.251a.151.151 0 0 0 .004-.028c-.982.585-1.974 1.185-3.01 1.834a.697.697 0 0 1-.96-.221.7.7 0 0 1 .22-.962c1.03-.646 2.018-1.241 2.997-1.825a13.065 13.065 0 0 0-3.137-.098c-.358.046-.722-.244-.758-.629a.697.697 0 0 1 .63-.758 14.61 14.61 0 0 1 3.096.05l-1.604-2.657a.696.696 0 1 1 1.193-.72l1.713 2.835c.076-1.1.105-2.205.03-3.303a.694.694 0 0 1 .645-.743c.371-.015.717.263.744.646.088 1.3.076 2.614-.034 3.92a150.796 150.796 0 0 1 3.667-2.01zM20.57 45.394a.384.384 0 0 1 .523.162c.1.188.028.423-.16.521-.602.318-1.165.627-1.717.936.299.076.597.144.896.182.21.027.361.22.337.431a.39.39 0 0 1-.385.339c-.016 0-.033 0-.047-.004-.476-.059-.932-.178-1.378-.3l.87 1.443a.385.385 0 1 1-.66.4l-.597-.985c-.07.438-.134.868-.153 1.302a.384.384 0 0 1-.384.37h-.017a.386.386 0 0 1-.37-.403c.027-.615.128-1.219.227-1.804l.003-.016c-.545.325-1.094.656-1.67 1.017a.388.388 0 0 1-.534-.12.387.387 0 0 1 .125-.534 74.66 74.66 0 0 1 1.646-1.004 7.312 7.312 0 0 0-1.725-.063.374.374 0 0 1-.42-.351.384.384 0 0 1 .35-.42 7.741 7.741 0 0 1 1.73.049l-.906-1.496a.387.387 0 0 1 .664-.398l.95 1.573c.04-.612.058-1.223.016-1.832a.388.388 0 0 1 .36-.413c.217-.002.397.147.412.359.049.727.026 1.456-.038 2.183a84.92 84.92 0 0 1 2.052-1.124zM12.165 3.3c-.243.017-.4-.138-.42-.35a.387.387 0 0 1 .351-.42 7.741 7.741 0 0 1 1.73.048l-.904-1.495a.386.386 0 0 1 .661-.399l.951 1.573c.042-.611.057-1.222.018-1.832a.387.387 0 0 1 .359-.413c.214.004.397.147.41.361.05.726.027 1.454-.035 2.181.657-.371 1.33-.74 2.05-1.124a.387.387 0 0 1 .362.684c-.6.318-1.162.627-1.717.936.3.076.598.143.897.181.214.03.362.221.336.432a.388.388 0 0 1-.383.338c-.016 0-.031 0-.048-.003-.475-.059-.931-.178-1.377-.299l.87 1.442a.385.385 0 0 1-.33.585.384.384 0 0 1-.33-.186l-.596-.985a10.91 10.91 0 0 0-.154 1.302.383.383 0 0 1-.385.37h-.017a.386.386 0 0 1-.37-.402c.028-.615.128-1.22.228-1.805l.002-.014c-.544.325-1.095.657-1.67 1.016a.373.373 0 0 1-.204.06.386.386 0 0 1-.205-.715 87.13 87.13 0 0 1 1.645-1.003 7.22 7.22 0 0 0-1.725-.064zM53.143 21.17a.39.39 0 0 1 .523.162.39.39 0 0 1-.16.522 77.91 77.91 0 0 0-1.718.935c.3.075.597.144.896.182.21.027.36.22.337.431a.39.39 0 0 1-.386.339c-.015 0-.03-.002-.046-.004a9.83 9.83 0 0 1-1.376-.3l.87 1.442a.389.389 0 0 1-.332.587.388.388 0 0 1-.331-.187l-.596-.986c-.07.439-.135.87-.154 1.302a.385.385 0 0 1-.383.372c-.007 0-.012 0-.017-.002a.383.383 0 0 1-.37-.4c.026-.617.128-1.223.228-1.81l.002-.01c-.547.326-1.096.657-1.67 1.016a.387.387 0 1 1-.409-.656 84.94 84.94 0 0 1 1.646-1.001 7.05 7.05 0 0 0-1.725-.064.392.392 0 0 1-.42-.349.382.382 0 0 1 .349-.42 7.855 7.855 0 0 1 1.732.049l-.905-1.497a.387.387 0 0 1 .663-.4l.95 1.574c.041-.61.057-1.223.015-1.834a.387.387 0 0 1 .36-.41.395.395 0 0 1 .412.358c.048.729.026 1.458-.036 2.183a87.1 87.1 0 0 1 2.051-1.124zM5.845 39.08a.698.698 0 0 1-.695.667l-.032-.002a.698.698 0 0 1-.666-.727c.05-1.107.233-2.196.41-3.251l.006-.026c-.984.583-1.972 1.182-3.01 1.833a.696.696 0 0 1-.74-1.183 150.3 150.3 0 0 1 2.997-1.825 12.812 12.812 0 0 0-3.137-.098c-.361.043-.722-.245-.76-.629a.7.7 0 0 1 .629-.76 14.397 14.397 0 0 1 3.097.05l-1.602-2.657a.694.694 0 0 1 .233-.956c.331-.2.76-.093.958.235l1.713 2.837c.076-1.1.106-2.204.03-3.304a.696.696 0 0 1 .647-.742.702.702 0 0 1 .744.646 25.61 25.61 0 0 1-.036 3.92c1.183-.669 2.38-1.328 3.668-2.009a.699.699 0 0 1 .942.29.7.7 0 0 1-.291.943c-1.081.57-2.097 1.128-3.095 1.685.542.137 1.076.26 1.62.328.38.047.65.396.603.78a.7.7 0 0 1-.78.604c-.854-.11-1.678-.325-2.48-.543l1.57 2.6a.698.698 0 0 1-1.194.72L6.12 36.73c-.128.793-.24 1.568-.275 2.35z"/>
    </g>
</svg>
