<svg xmlns="http://www.w3.org/2000/svg" width="100%" height="100%" viewBox="0 0 53 91">
    <path fill="#F1EBE4" fill-rule="evenodd" d="M50.565 26.14a2.245 2.245 0 0 1 1.98 2.483c-6.431 56.955-7.583 58.08-8.272 58.754-3.203 3.134-11.992 3.464-15.52 3.464-.246 0-.467-.002-.66-.004-2.924-.038-12.723-.42-16.047-3.821-.691-.705-1.734-1.772-6.957-58.921a2.243 2.243 0 0 1 2.032-2.438c1.235-.092 2.328.798 2.438 2.03 1.812 19.818 4.973 51.842 6.014 56.452 1.55 1.055 6.211 2.13 12.578 2.207 6.406.076 11.097-.896 12.669-1.932 1.172-4.543 5.031-36.52 7.264-56.295a2.255 2.255 0 0 1 2.481-1.979zM24.58 82.171a1.682 1.682 0 0 1-1.115-2.103L47.508 1.54a1.684 1.684 0 1 1 3.222.986l-24.045 78.53a1.688 1.688 0 0 1-2.105 1.115zM10.45 11.026a4.343 4.343 0 0 0-.698 1.896c3.3.218 6.703.085 10.175-.404.916-.127 1.79-.28 2.435-.723.52-.354.824-.962.693-1.383-.1-.328-.458-.658-1.06-.985-1.617-.868-3.72-1.208-6.072-.986-1.485.142-4.172.665-5.474 2.585zm12.157 9.822c-.588.178-2.094.703-3.116 1.7 1.295.369 2.467.53 3.545.536 2.02-.009 3.854-.684 5.052-1.856-1.74-1.297-4.395-.703-5.48-.38zm6.42 10.604a2.54 2.54 0 0 0-1.155.326c.107.01.218.02.325.028.578.041 1.191-.059 1.571-.25a2.045 2.045 0 0 0-.74-.104zM9.154 18.774a9.001 9.001 0 0 1-1.581-3.792 45.38 45.38 0 0 1-5.98-1.06c-.6-.15-.965-.76-.818-1.36.148-.605.76-.968 1.362-.82 1.756.438 3.552.76 5.382.975.13-1.07.485-2.083 1.073-2.95 1.726-2.546 4.824-3.342 7.117-3.558 2.796-.275 5.34.16 7.349 1.243 1.155.622 1.855 1.373 2.141 2.291.427 1.377-.217 2.98-1.568 3.906-1.046.717-2.25.934-3.391 1.092-3.52.493-6.97.638-10.324.438.217.841.592 1.635 1.06 2.285 1.236 1.714 3.198 3.071 6.18 4.272.02.008.038.017.059.024.965-1.349 2.602-2.42 4.75-3.062 1.818-.544 5.242-1.148 7.717.93.167.14.694.58.8 1.294.089.622-.151 1.226-.716 1.803-1.612 1.644-4.06 2.592-6.718 2.604h-.057c-1.406 0-2.874-.238-4.514-.74-.105 1.693 1.352 3.247 2.01 3.86a12.716 12.716 0 0 0 4.77 2.785c.046-.067.09-.136.139-.202.782-1.077 2.145-1.775 3.555-1.825 1.238-.055 2.414.439 3.157 1.326.185.221.28.508.259.798a2.542 2.542 0 0 1-.896 1.772c-1.176 1.02-2.927.982-3.437.942-.45-.032-.9-.088-1.345-.16-.058.91.227 1.868.684 2.581.762 1.186 2.06 2.178 3.972 3.032.564.254.818.919.566 1.484a1.124 1.124 0 0 1-1.027.663c-.152 0-.308-.03-.458-.095-2.32-1.042-3.939-2.305-4.942-3.872-.867-1.353-1.202-2.913-1.003-4.335a14.966 14.966 0 0 1-5.52-3.25c-1.199-1.112-3.136-3.391-2.661-6.168l.017-.107h-.002c-3.39-1.366-5.665-2.968-7.16-5.044z"/>
</svg>
