<svg xmlns="http://www.w3.org/2000/svg" width="100%" height="100%" viewBox="0 0 73 92">
    <g fill="none" fill-rule="evenodd">
        <path fill="#F6ECB0" d="M69.64 89.96c.75-6.277 1.286-10.95 1.286-10.95.298-2.05-.36-3.603-1.01-5.201-.466-1.149-1.397-2.376-1.714-3.222-.404-1.077-.942-1.34-1.59-2.28-.145-.21-.194-.478-.355-.678-.44-.546-1.686-1.988-2.187-2.481-.353-.35-6.388-3.465-8.055-3.99-.455-.143-1.694-.18-2.197-.146-1.455.095-6.44 2.609-7.654 3.402a4.095 4.095 0 0 0-.695.585c-1.009 1.036-3.45 2.689-4.037 4.004-.377.84-.872 1.306-1.249 2.146-.222.495-1.006 2.872-1.227 3.367-.635 1.414-1.033 3.001-.944 4.131 0 0 .433 4.661 1.042 10.93 4.114 3.006 26.158 3.308 30.586.383"/>
        <path fill="#006D58" d="M70.963 26.922c1.254.14 2.156 1.26 2.015 2.497-6.55 57.288-7.724 58.42-8.424 59.097C61.29 91.668 52.34 92 48.746 92c-.251 0-.477 0-.672-.002-2.977-.038-12.957-.422-16.344-3.844-.702-.708-1.764-1.782-7.084-59.266a2.265 2.265 0 0 1 2.068-2.454c1.257-.09 2.37.804 2.483 2.044 1.847 19.934 5.065 52.145 6.125 56.781 1.578 1.063 6.326 2.141 12.81 2.221 6.527.075 11.303-.901 12.905-1.943 1.192-4.57 5.123-36.734 7.397-56.625.142-1.238 1.284-2.126 2.529-1.99zM44.158 83.21a1.709 1.709 0 0 1-1.14-2.138L67.59 1.252A1.724 1.724 0 0 1 69.741.116a1.711 1.711 0 0 1 1.142 2.138L46.31 82.076a1.722 1.722 0 0 1-2.152 1.134zM29.823 10.965a4.378 4.378 0 0 0-.705 1.922c3.336.22 6.78.084 10.293-.41.926-.13 1.81-.283 2.464-.733.526-.36.835-.975.702-1.404-.103-.33-.465-.666-1.074-.997-1.636-.879-3.764-1.225-6.143-.998-1.503.144-4.221.674-5.537 2.62zm12.3 9.955c-.596.18-2.12.711-3.154 1.724 1.31.373 2.499.536 3.589.541 2.044-.007 3.9-.691 5.11-1.88-1.761-1.314-4.446-.712-5.545-.385zm6.497 10.748a2.545 2.545 0 0 0-1.17.331c.108.01.22.02.328.028.587.042 1.205-.06 1.592-.253a2.075 2.075 0 0 0-.75-.106zm-20.109-12.85a9.133 9.133 0 0 1-1.6-3.843 45.531 45.531 0 0 1-6.048-1.076 1.138 1.138 0 0 1 .549-2.209c1.776.444 3.593.772 5.447.989.129-1.085.489-2.111 1.083-2.99 1.747-2.583 4.881-3.388 7.201-3.609 2.83-.276 5.404.165 7.436 1.26 1.168.632 1.876 1.394 2.166 2.325.432 1.393-.22 3.02-1.586 3.959-1.059.726-2.277.945-3.432 1.106-3.56.5-7.052.648-10.445.444.22.853.599 1.658 1.074 2.316 1.25 1.738 3.234 3.114 6.251 4.33.02.007.039.018.06.025.976-1.367 2.632-2.452 4.806-3.104 1.84-.55 5.306-1.163 7.807.942.17.144.705.588.811 1.313.09.63-.154 1.242-.725 1.827-1.632 1.666-4.109 2.625-6.798 2.64h-.057c-1.42 0-2.906-.242-4.567-.752-.107 1.717 1.368 3.293 2.033 3.914a12.89 12.89 0 0 0 4.827 2.823c.046-.068.091-.138.14-.205.792-1.092 2.17-1.799 3.597-1.85 1.255-.056 2.445.445 3.194 1.344.189.224.283.515.262.807a2.572 2.572 0 0 1-.907 1.796c-1.188 1.036-2.96.998-3.475.956a14.764 14.764 0 0 1-1.362-.161c-.058.92.23 1.893.693 2.616.77 1.203 2.083 2.207 4.017 3.073.571.258.828.932.573 1.504a1.135 1.135 0 0 1-1.5.574c-2.35-1.054-3.988-2.337-5.003-3.922-.877-1.374-1.216-2.953-1.015-4.395-2.066-.68-3.98-1.8-5.585-3.294-1.213-1.127-3.173-3.437-2.692-6.253l.017-.107h-.002c-3.43-1.385-5.732-3.009-7.245-5.113z"/>
        <path fill="#FAC53C" d="M14.987 40.51a.695.695 0 0 1 .934.287.683.683 0 0 1-.289.923c-1.07.561-2.077 1.109-3.065 1.656a13.28 13.28 0 0 0 1.602.322c.379.048.645.39.6.765a.69.69 0 0 1-.772.593c-.847-.109-1.665-.319-2.46-.532l1.557 2.55a.684.684 0 0 1-.59 1.038.69.69 0 0 1-.592-.329l-1.064-1.744c-.127.778-.24 1.539-.272 2.305a.688.688 0 0 1-.69.656l-.029-.002a.684.684 0 0 1-.66-.712c.048-1.09.23-2.16.405-3.196l.004-.022c-.973.573-1.954 1.16-2.98 1.8a.696.696 0 0 1-.953-.217.684.684 0 0 1 .22-.944c1.022-.636 2-1.22 2.969-1.792a12.969 12.969 0 0 0-3.107-.096.694.694 0 0 1-.752-.617.688.688 0 0 1 .622-.746 14.273 14.273 0 0 1 3.067.047l-1.587-2.606a.678.678 0 0 1 .231-.94.694.694 0 0 1 .95.233l1.696 2.783c.075-1.078.104-2.163.03-3.243a.685.685 0 0 1 .64-.728.685.685 0 0 1 .736.635 24.89 24.89 0 0 1-.034 3.846c1.17-.656 2.357-1.302 3.633-1.973zm5.459-20.141a.374.374 0 1 1 .353.66c-.585.305-1.133.603-1.672.902.293.073.582.14.873.177a.378.378 0 0 1 .328.416.38.38 0 0 1-.42.324 9.92 9.92 0 0 1-1.342-.29l.847 1.392a.372.372 0 0 1-.323.567.378.378 0 0 1-.32-.18l-.581-.95a10.77 10.77 0 0 0-.15 1.255.373.373 0 0 1-.373.358c-.007 0-.012 0-.017-.002a.372.372 0 0 1-.36-.386c.025-.594.125-1.177.22-1.743l.004-.015c-.532.314-1.067.634-1.627.982a.38.38 0 0 1-.52-.118.372.372 0 0 1 .122-.515 79.952 79.952 0 0 1 1.603-.969 7.184 7.184 0 0 0-1.68-.061.365.365 0 0 1-.41-.337.37.37 0 0 1 .34-.405 7.605 7.605 0 0 1 1.686.045l-.882-1.442a.375.375 0 0 1 .13-.514.38.38 0 0 1 .516.127l.927 1.52c.039-.59.055-1.182.015-1.77a.375.375 0 0 1 .35-.397c.212-.003.387.142.402.347.047.7.025 1.404-.037 2.107a82.94 82.94 0 0 1 1.998-1.085zM6.055 13.807c-.019.372-.35.662-.749.662h-.033c-.414-.017-.734-.341-.717-.722.054-1.1.25-2.182.442-3.228l.006-.027c-1.059.58-2.121 1.174-3.237 1.82a.806.806 0 0 1-.396.105.765.765 0 0 1-.637-.324c-.219-.322-.115-.75.236-.955 1.11-.643 2.173-1.234 3.224-1.812A15.017 15.017 0 0 0 .82 9.228c-.389.043-.777-.243-.818-.624-.037-.38.268-.716.676-.752 1.113-.095 2.23-.08 3.332.048L2.287 5.263c-.218-.329-.102-.754.25-.951.357-.2.818-.091 1.031.235L5.41 7.363c.082-1.092.114-2.189.032-3.28-.028-.382.282-.71.696-.738.42-.016.771.262.8.641A23.475 23.475 0 0 1 6.9 7.877c1.272-.663 2.559-1.318 3.944-1.993.37-.179.821-.048 1.014.29.194.337.052.754-.313.934-1.163.567-2.255 1.12-3.328 1.673.583.135 1.157.259 1.742.326.408.048.7.392.648.773-.049.35-.372.607-.741.607-.034 0-.065-.004-.097-.007-.92-.108-1.805-.32-2.669-.537l1.689 2.578c.213.328.098.753-.255.952a.798.798 0 0 1-.386.1.765.765 0 0 1-.643-.335L6.35 11.474c-.137.787-.258 1.558-.295 2.333z"/>
    </g>
</svg>
