<svg xmlns="http://www.w3.org/2000/svg" width="3" height="300" viewBox="0 0 3 300">
    <path fill="#C0D9D4" fill-rule="evenodd" d="M2.165 299.518c0 .643-1.334.642-1.334 0v-4.86c0-.643 1.334-.642 1.334 0v4.86zm-.264-12.96c.07.642-1.265.637-1.333 0-.28-2.596-.044-5.15.687-7.695.18-.629 1.465-.36 1.286.266a19.181 19.181 0 0 0-.64 7.43zm.504-12.418c-.076.637-1.41.64-1.334 0a18.565 18.565 0 0 0-.61-7.432c-.183-.628 1.103-.893 1.285-.266.739 2.548.966 5.101.659 7.698zm-.24-11.874c0 .644-1.334.642-1.334 0v-6.479c0-.643 1.334-.643 1.334 0v6.479zm-.217-10.801c.074.641-1.26.636-1.334 0-.32-2.777-.102-5.51.628-8.24.168-.63 1.453-.362 1.286.265a21.119 21.119 0 0 0-.58 7.975zm.67-18.358c.099.639-1.236.63-1.333 0l-.907-5.923c-.098-.638 1.237-.63 1.333 0l.907 5.923zm-.453-12.413c0 .644-1.334.643-1.334 0v-5.938c0-.643 1.334-.642 1.334 0v5.938zm-.371-11.163c-.237.617-1.524.353-1.287-.265.65-1.698.83-3.42.49-5.169-.123-.629 1.163-.898 1.285-.265a10.15 10.15 0 0 1-.488 5.699zm.394-11.63c.126.629-1.16.898-1.286.265a16.664 16.664 0 0 1 .262-7.811c.172-.63 1.457-.362 1.286.265-.66 2.417-.753 4.84-.262 7.28zm.39-12.982c.113.629-1.171.899-1.287.266-.291-1.615-.581-3.23-.873-4.843-.113-.63 1.172-.9 1.286-.266l.874 4.843zm-.2-12.277c-.087.634-1.422.638-1.334 0a15.694 15.694 0 0 0-.575-6.897c-.196-.626 1.091-.89 1.287-.265.737 2.366.952 4.743.622 7.162zm-.213-12.954c0 .644-1.334.643-1.334 0v-8.637c0-.644 1.334-.643 1.334 0v8.637zm0-14.518c0 .643-1.334.643-1.334 0v-4.319c0-.643 1.334-.642 1.334 0v4.319zm-.362-8.105c-.06.638-1.395.641-1.333 0 .24-2.52.482-5.04.723-7.559.06-.638 1.395-.64 1.334 0l-.724 7.559zm-.054-15.49c-.313.59-1.604.331-1.286-.265.698-1.313.927-2.68.602-4.077-.146-.63 1.14-.897 1.286-.265.365 1.572.189 3.121-.602 4.607zm.416-12.037c0 .644-1.334.642-1.334 0v-5.94c0-.642 1.334-.64 1.334 0v5.94zm-.362-11.712c-.18.63-1.465.361-1.286-.265.653-2.292.792-4.586.448-6.914-.094-.639 1.241-.632 1.334 0 .357 2.42.182 4.8-.496 7.179zm.362-13.663c0 .644-1.334.643-1.334 0v-4.319c0-.643 1.334-.642 1.334 0v4.32zm-.409-10.267c-.075.636-1.408.64-1.334 0 .272-2.338.545-4.676.819-7.013.073-.635 1.408-.64 1.334 0-.274 2.337-.547 4.675-.819 7.013zm.41-9.967c0 .644-1.335.643-1.335 0V51.512c0-.644 1.334-.643 1.334 0v12.417zm-.86-18.533c-.193.627-1.479.359-1.287-.266a36.926 36.926 0 0 0 1.647-10.096c.015-.642 1.349-.642 1.334 0a37.908 37.908 0 0 1-1.694 10.362zm.86-17.92c0 .644-1.335.642-1.335 0v-4.319c0-.644 1.334-.643 1.334 0v4.32zm0-9.718c0 .644-1.335.642-1.335 0V9.66c0-.643 1.334-.641 1.334 0v8.1zm0-14.037c0 .644-1.335.643-1.335 0V.481c0-.642 1.334-.641 1.334 0v3.24z"/>
</svg>
