<svg xmlns="http://www.w3.org/2000/svg" width="345" height="60" viewBox="0 0 345 60" preserveAspectRatio="none">
    <path fill="none" fill-rule="nonzero" stroke="#B3D343" stroke-opacity=".302" stroke-width="2" d="M5.888 2.972A5 5 0 0 0 1 7.97v43.413a5 5 0 0 0 5.062 4.938c31.162-.385 73.15.242 125.969 1.881 11.437.355 30.92.479 59.645.454 7.276-.006 14.13-.019 25.145-.045 21.8-.052 27.263-.06 34.054-.04 18.511.06 47.877.202 88.097.428H339a5 5 0 0 0 5-5V7.465a5 5 0 0 0-4.523-4.977C320.563.674 288.74.518 244.034 2.024c-14.533.49-38.608.483-77.732.13-5.093-.046-10.245-.095-17.301-.165-37.327-.37-46.375-.443-57.63-.41-17.589.05-46.084.514-85.483 1.393z"/>
</svg>
