<svg xmlns="http://www.w3.org/2000/svg" width="940" height="2" viewBox="0 0 940 2">
    <path fill="#C0D9D4" fill-rule="evenodd" d="M.623 1.443c-.831 0-.83-.889 0-.889h5.575c.83 0 .83.89 0 .89H.623zm10.463-.24c-.823-.041-.828-.931 0-.89l9.758.482c.824.04.828.93 0 .89l-9.758-.483zm19.998-.037c-.763-.209-.428-1.07.342-.857A13.63 13.63 0 0 0 36.69.71c.812-.097 1.157.76.342.857-2.03.244-4.03.126-5.947-.4zm15.539.277c-.831 0-.83-.889 0-.889h7.668c.83 0 .828.89 0 .89h-7.668zm15.12-.241c-.812-.12-.466-.977.342-.857 2.96.435 5.92.528 8.926.299.825-.063.816.827 0 .889a41.63 41.63 0 0 1-9.268-.331zm17.638.241c-.83 0-.83-.889 0-.889h5.576c.831 0 .83.89 0 .89h-5.576zm13.256-.272c-.822-.05-.827-.94 0-.89l9.052.546c.821.05.826.94 0 .89-3.016-.183-6.034-.365-9.052-.546zm12.867.272c-.831 0-.83-.889 0-.889h16.03c.831 0 .83.89 0 .89h-16.03zM129.43.871c-.81-.129-.464-.986.342-.858a89.384 89.384 0 0 0 13.035 1.098c.829.01.829.899 0 .889A91.75 91.75 0 0 1 129.43.87zm23.134.572c-.831 0-.83-.889 0-.889h5.576c.83 0 .83.89 0 .89h-5.576zm12.545 0c-.83 0-.828-.889 0-.889h10.455c.83 0 .83.89 0 .89H165.11zm18.122 0c-.83 0-.83-.889 0-.889h4.182c.83 0 .829.89 0 .89h-4.182zm13.954.23c-.826.06-.816-.83 0-.89l6.276-.459c.826-.06.817.83 0 .89l-6.276.459zm13.38.016c-.806.143-1.145-.715-.343-.858 2.818-.5 5.656-.645 8.55-.42.816.063.824.953 0 .89a32.297 32.297 0 0 0-8.207.388zm17.101-.542c-.816-.102-.468-.96.343-.857 3.875.483 7.75.632 11.677.464.83-.035.824.854 0 .89a71.91 71.91 0 0 1-12.02-.497zm23.87.296c-.832 0-.83-.889 0-.889h10.454c.83 0 .829.89 0 .89h-10.455zm23 0c-.832 0-.83-.889 0-.889h6.272c.831 0 .83.89 0 .89h-6.273zm16.73-.175c-.83.046-.822-.844 0-.89a48.89 48.89 0 0 1 9.933.459c.813.12.467.976-.342.857a47.234 47.234 0 0 0-9.592-.426zm16.03.335c-.82-.05-.826-.94 0-.89 3.236.198 6.419.07 9.596-.406.81-.122 1.152.736.343.857a47.301 47.301 0 0 1-9.938.44zm15.33-.16c-.83 0-.828-.889 0-.889h8.364c.831 0 .83.89 0 .89h-8.364zm13.945-.144c-.828.049-.821-.84 0-.89a53.956 53.956 0 0 1 10.637.419c.814.112.468.969-.342.857A52.144 52.144 0 0 0 336.57 1.3zm23.7.447c-.825.065-.815-.825 0-.89l7.646-.604c.823-.065.814.825 0 .889l-7.647.605zm16.024-.303c-.831 0-.83-.889 0-.889h7.667c.83 0 .828.89 0 .89h-7.667zm14.412-.247c-.797-.158-.456-1.016.342-.858a22.57 22.57 0 0 0 6.672.326c.813-.082 1.16.776.343.858-2.495.25-4.93.153-7.357-.326zm15.015.262c-.813.085-1.16-.772-.343-.857a41.182 41.182 0 0 1 10.084.175c.813.115.467.971-.343.857-3.12-.44-6.249-.502-9.398-.175zm16.758.26c-.812.076-1.16-.78-.342-.857l6.252-.582c.813-.075 1.16.781.343.857l-6.253.583zm15.85-.133c-.819-.058-.824-.947 0-.89 3.007.213 5.957.092 8.904-.383.808-.13 1.15.728.342.858a40.103 40.103 0 0 1-9.246.415zm16.723-.142c-.83 0-.83-.889 0-.889h11.15c.832 0 .83.89 0 .89h-11.15zm18.743 0c-.83 0-.83-.889 0-.889h5.575c.831 0 .83.89 0 .89h-5.575zm10.464-.24c-.824-.041-.828-.931 0-.89l9.757.482c.824.04.828.93 0 .89l-9.757-.483zm19.997-.037c-.762-.209-.428-1.07.342-.857a13.63 13.63 0 0 0 5.263.401c.812-.097 1.158.76.342.857-2.029.244-4.03.126-5.947-.4zm15.539.277c-.831 0-.829-.889 0-.889h7.668c.83 0 .828.89 0 .89h-7.668zm15.12-.241c-.812-.12-.466-.977.343-.857 2.959.435 5.92.528 8.925.299.825-.063.816.827 0 .889a41.63 41.63 0 0 1-9.268-.331zm17.639.241c-.831 0-.83-.889 0-.889h5.575c.831 0 .83.89 0 .89h-5.575zm13.255-.272c-.822-.05-.827-.94 0-.89l9.053.546c.82.05.826.94 0 .89-3.017-.183-6.035-.365-9.053-.546zm12.867.272c-.831 0-.83-.889 0-.889h16.03c.831 0 .83.89 0 .89h-16.03zm23.926-.572c-.81-.129-.464-.986.342-.858a89.384 89.384 0 0 0 13.035 1.098c.829.01.829.899 0 .889A91.75 91.75 0 0 1 602.603.87zm23.134.572c-.83 0-.829-.889 0-.889h5.576c.83 0 .83.89 0 .89h-5.576zm12.546 0c-.831 0-.83-.889 0-.889h10.455c.83 0 .828.89 0 .89h-10.455zm18.121 0c-.83 0-.83-.889 0-.889h4.182c.83 0 .83.89 0 .89h-4.182zm13.955.23c-.826.06-.817-.83 0-.89 2.092-.152 4.184-.305 6.275-.459.826-.06.817.83 0 .89l-6.275.459zm13.379.016c-.804.143-1.145-.715-.342-.858 2.817-.5 5.655-.645 8.55-.42.816.063.823.953 0 .89a32.303 32.303 0 0 0-8.208.388zm17.102-.542c-.816-.102-.468-.96.342-.857 3.876.483 7.75.632 11.677.464.83-.035.824.854 0 .89a71.91 71.91 0 0 1-12.02-.497zm23.869.296c-.831 0-.83-.889 0-.889h10.454c.83 0 .83.89 0 .89H724.71zm23 0c-.832 0-.83-.889 0-.889h6.272c.831 0 .83.89 0 .89h-6.273zm16.73-.175c-.83.046-.822-.844 0-.89a48.89 48.89 0 0 1 9.934.459c.812.12.466.976-.343.857a47.234 47.234 0 0 0-9.591-.426zm16.031.335c-.822-.05-.826-.94 0-.89 3.235.198 6.418.07 9.595-.406.81-.122 1.153.736.343.857a47.301 47.301 0 0 1-9.938.44zm15.33-.16c-.83 0-.83-.889 0-.889h8.363c.831 0 .83.89 0 .89h-8.362zm13.944-.144c-.828.049-.82-.84 0-.89a53.956 53.956 0 0 1 10.637.419c.815.112.468.969-.342.857a52.141 52.141 0 0 0-10.295-.386zm23.7.447c-.825.065-.815-.825 0-.89l7.646-.604c.824-.065.814.825 0 .889l-7.646.605zm16.024-.303c-.831 0-.83-.889 0-.889h7.667c.83 0 .829.89 0 .89h-7.667zm14.412-.247c-.796-.158-.455-1.016.344-.858 2.19.433 4.414.553 6.67.326.813-.082 1.16.776.343.858-2.494.25-4.93.153-7.357-.326zm15.015.262c-.813.085-1.16-.772-.343-.857a41.19 41.19 0 0 1 10.085.175c.812.115.466.971-.343.857-3.12-.44-6.25-.502-9.4-.175zm16.76.26c-.813.076-1.162-.78-.344-.857l6.253-.582c.813-.075 1.16.781.342.857l-6.252.583zm15.848-.133c-.818-.058-.823-.947 0-.89 3.007.213 5.958.092 8.904-.383.809-.13 1.15.728.343.858a40.103 40.103 0 0 1-9.247.415zm16.723-.142c-.83 0-.83-.889 0-.889h11.151c.831 0 .83.89 0 .89h-11.15z"/>
</svg>
