<svg xmlns="http://www.w3.org/2000/svg" preserveAspectRatio="none" width="912" height="3" viewBox="0 0 912 3">
    <path fill="#c0d9d4" fill-rule="evenodd" d="M.604 2.217c-.806 0-.805-1.25 0-1.25h5.407c.806 0 .805 1.25 0 1.25H.604zm10.149-.339c-.8-.057-.803-1.308 0-1.25l9.464.678c.799.057.803 1.307 0 1.25l-9.464-.678zm19.395-.05c-.74-.294-.415-1.503.332-1.205 1.644.653 3.356.867 5.104.563.788-.137 1.123 1.069.332 1.206-1.968.341-3.908.177-5.768-.565zm15.071.39c-.806 0-.804-1.25 0-1.25h7.437c.805 0 .803 1.25 0 1.25H45.22zm14.665-.34c-.788-.168-.452-1.373.332-1.205 2.87.612 5.742.742 8.657.42.8-.088.791 1.163 0 1.25-3.03.334-6.01.17-8.989-.465zm17.108.34c-.806 0-.805-1.25 0-1.25H82.4c.806 0 .804 1.25 0 1.25h-5.408zm12.856-.384c-.797-.07-.802-1.32 0-1.25 2.927.255 5.854.51 8.78.767.796.069.801 1.32 0 1.25l-8.78-.767zm12.48.383c-.806 0-.805-1.25 0-1.25h15.548c.806 0 .805 1.25 0 1.25h-15.548zm23.206-.805c-.785-.18-.45-1.386.332-1.205a60.6 60.6 0 0 0 12.642 1.543c.804.013.804 1.263 0 1.25a62.208 62.208 0 0 1-12.974-1.588zm22.437.805c-.806 0-.804-1.25 0-1.25h5.408c.806 0 .805 1.25 0 1.25h-5.408zm12.168 0c-.806 0-.804-1.25 0-1.25h10.14c.805 0 .804 1.25 0 1.25h-10.14zm17.576 0c-.805 0-.804-1.25 0-1.25h4.056c.806 0 .805 1.25 0 1.25h-4.055zm13.535.323c-.801.085-.792-1.166 0-1.25l6.087-.646c.8-.084.792 1.167 0 1.25l-6.087.646zm12.976.022c-.78.2-1.11-1.005-.332-1.205a22.716 22.716 0 0 1 8.292-.591c.792.089.8 1.34 0 1.25a21.79 21.79 0 0 0-7.96.546zm16.587-.762c-.792-.143-.454-1.348.332-1.205 3.76.68 7.517.89 11.326.653.805-.049.8 1.201 0 1.25a48.35 48.35 0 0 1-11.658-.698zm23.15.417c-.805 0-.804-1.25 0-1.25h10.14c.805 0 .805 1.25 0 1.25h-10.14zm22.308 0c-.806 0-.805-1.25 0-1.25h6.084c.806 0 .805 1.25 0 1.25h-6.084zm16.227-.247c-.804.065-.797-1.186 0-1.25a32.926 32.926 0 0 1 9.635.644c.788.17.452 1.373-.332 1.205a31.802 31.802 0 0 0-9.303-.599zm15.548.472c-.796-.071-.801-1.321 0-1.25 3.139.277 6.226.096 9.307-.572.786-.171 1.118 1.034.332 1.205-3.19.692-6.387.905-9.639.617zm14.869-.225c-.806 0-.804-1.25 0-1.25h8.112c.806 0 .805 1.25 0 1.25h-8.112zm13.524-.203c-.803.069-.796-1.181 0-1.25 3.477-.3 6.898-.096 10.317.588.79.158.454 1.362-.332 1.205a35.07 35.07 0 0 0-9.985-.543zm22.986.628c-.8.092-.79-1.159 0-1.25l7.416-.85c.8-.091.79 1.16 0 1.25l-7.416.85zm15.542-.425c-.806 0-.805-1.25 0-1.25h7.436c.805 0 .804 1.25 0 1.25h-7.436zm13.979-.348c-.773-.222-.442-1.428.332-1.206 2.125.609 4.282.778 6.47.459.789-.115 1.126 1.09.333 1.205-2.42.353-4.782.216-7.135-.458zm14.562.37c-.788.118-1.125-1.087-.332-1.206a27.687 27.687 0 0 1 9.78.246c.79.161.453 1.365-.332 1.205a25.884 25.884 0 0 0-9.116-.246zm16.254.365c-.787.106-1.125-1.098-.332-1.206l6.064-.818c.79-.106 1.126 1.098.333 1.205l-6.065.82zm15.373-.188c-.794-.08-.799-1.332 0-1.25 2.916.298 5.778.128 8.636-.539.784-.183 1.115 1.023.332 1.206a27.025 27.025 0 0 1-8.968.583zm16.22-.199c-.806 0-.805-1.25 0-1.25h10.815c.806 0 .805 1.25 0 1.25h-10.815zm18.179 0c-.806 0-.805-1.25 0-1.25h5.407c.806 0 .805 1.25 0 1.25h-5.407zm10.148-.339c-.799-.057-.803-1.308 0-1.25l9.464.678c.8.057.803 1.307 0 1.25l-9.464-.678zm19.396-.05c-.74-.294-.415-1.503.332-1.205 1.644.653 3.356.867 5.104.563.788-.137 1.123 1.069.332 1.206-1.968.341-3.908.177-5.768-.565zm15.071.39c-.806 0-.804-1.25 0-1.25h7.437c.805 0 .803 1.25 0 1.25h-7.437zm14.665-.34c-.788-.168-.452-1.373.332-1.205 2.87.612 5.742.742 8.657.42.8-.088.791 1.163 0 1.25-3.03.334-6.01.17-8.989-.465zm17.108.34c-.807 0-.806-1.25 0-1.25h5.408c.805 0 .803 1.25 0 1.25h-5.409zm12.856-.384c-.797-.07-.802-1.32 0-1.25 2.927.255 5.854.51 8.78.767.796.069.801 1.32 0 1.25l-8.78-.767zm12.48.383c-.807 0-.806-1.25 0-1.25h15.547c.806 0 .805 1.25 0 1.25h-15.548zm23.205-.805c-.784-.18-.45-1.386.332-1.205a60.6 60.6 0 0 0 12.643 1.543c.803.013.803 1.263 0 1.25a62.208 62.208 0 0 1-12.975-1.588zm22.438.805c-.806 0-.804-1.25 0-1.25h5.408c.806 0 .805 1.25 0 1.25h-5.408zm12.168 0c-.806 0-.804-1.25 0-1.25h10.141c.805 0 .803 1.25 0 1.25h-10.141zm17.576 0c-.806 0-.805-1.25 0-1.25h4.056c.805 0 .804 1.25 0 1.25h-4.056zm13.534.323c-.8.085-.792-1.166 0-1.25l6.087-.646c.801-.084.792 1.167 0 1.25l-6.087.646zm12.977.022c-.78.2-1.11-1.005-.332-1.205a22.72 22.72 0 0 1 8.293-.591c.79.089.798 1.34 0 1.25a21.794 21.794 0 0 0-7.961.546zm16.587-.762c-.791-.143-.454-1.348.332-1.205 3.759.68 7.517.89 11.326.653.805-.049.799 1.201 0 1.25a48.35 48.35 0 0 1-11.658-.698zm23.15.417c-.806 0-.805-1.25 0-1.25h10.14c.805 0 .804 1.25 0 1.25h-10.14zm22.308 0c-.806 0-.804-1.25 0-1.25h6.084c.806 0 .805 1.25 0 1.25H725.2zm16.226-.247c-.804.065-.797-1.186 0-1.25a32.926 32.926 0 0 1 9.635.644c.788.17.452 1.373-.332 1.205a31.802 31.802 0 0 0-9.303-.599zm15.55.472c-.798-.071-.802-1.321 0-1.25 3.137.277 6.224.096 9.305-.572.786-.171 1.118 1.034.333 1.205-3.19.692-6.387.905-9.639.617zm14.868-.225c-.806 0-.805-1.25 0-1.25h8.111c.806 0 .805 1.25 0 1.25h-8.11zm13.524-.203c-.803.069-.796-1.181 0-1.25 3.477-.3 6.898-.096 10.317.588.79.158.454 1.362-.332 1.205a35.068 35.068 0 0 0-9.985-.543zm22.986.628c-.8.092-.79-1.159 0-1.25l7.416-.85c.8-.091.79 1.16 0 1.25l-7.416.85zm15.542-.425c-.806 0-.805-1.25 0-1.25h7.436c.805 0 .804 1.25 0 1.25h-7.436zm13.979-.348c-.772-.222-.442-1.428.333-1.206 2.124.609 4.28.778 6.47.459.788-.115 1.125 1.09.332 1.205-2.42.353-4.782.216-7.135-.458zm14.562.37c-.788.118-1.125-1.087-.332-1.206a27.693 27.693 0 0 1 9.781.246c.788.161.452 1.365-.333 1.205a25.884 25.884 0 0 0-9.116-.246zm16.255.365c-.788.106-1.126-1.098-.333-1.206l6.065-.818c.788-.106 1.125 1.098.332 1.205l-6.064.82zm15.372-.188c-.794-.08-.799-1.332 0-1.25 2.916.298 5.778.128 8.636-.539.784-.183 1.115 1.023.332 1.206a27.025 27.025 0 0 1-8.968.583zm16.22-.199c-.806 0-.805-1.25 0-1.25H911.1c.806 0 .805 1.25 0 1.25h-10.815z"/>
</svg>
