<svg xmlns="http://www.w3.org/2000/svg" width="448" height="3" viewBox="0 0 448 3">
    <path fill="#F8E4DC" fill-rule="evenodd" d="M.746 2c-.995 0-.994-1 0-1h7.508c.995 0 .994 1 0 1H.746zm18.984.376c-.978.066-.97-1.203 0-1.268a47.882 47.882 0 0 1 11.723.654c.959.171.55 1.392-.404 1.222a46.255 46.255 0 0 0-11.319-.608zm19-.503c-.97-.072-.976-1.346 0-1.273 3.817.282 7.572.097 11.32-.583.956-.174 1.36 1.053.405 1.227-3.88.705-7.77.922-11.726.629zM56.712 2c-.952 0-.95-1 0-1h9.574c.951 0 .95 1 0 1h-9.574zm16.025.426c-.988.071-.98-1.216 0-1.287a53.29 53.29 0 0 1 12.707.605c.973.163.559 1.403-.41 1.241a51.496 51.496 0 0 0-12.297-.559zm26.955-.43c-.93.087-.918-1.1 0-1.186 2.871-.268 5.742-.536 8.615-.806.928-.086.918 1.1 0 1.186l-8.615.805zM118.699 2c-.933 0-.931-1 0-1h8.603c.931 0 .93 1 0 1h-8.603zm15.85-.688c-.964-.236-.551-1.52.413-1.283 2.647.648 5.334.828 8.06.488.982-.122 1.402 1.16.414 1.282-3.013.376-5.957.23-8.888-.487zm17.406 1.396c-.96.133-1.37-1.216-.404-1.349a36.57 36.57 0 0 1 11.901.275c.96.18.552 1.529-.404 1.35a34.19 34.19 0 0 0-11.093-.276zm20.012-.714c-.97.104-1.387-1.078-.41-1.184l7.475-.804c.972-.104 1.388 1.078.41 1.183l-7.475.805zm17.749-.14c-.952-.082-.958-1.366 0-1.282a36.27 36.27 0 0 0 10.35-.553c.94-.187 1.336 1.05.398 1.238a37.7 37.7 0 0 1-10.748.598zM209.703 2c-.938 0-.937-1 0-1h12.594c.938 0 .937 1 0 1h-12.594zm21.028 0c-.975 0-.974-1 0-1h6.538c.975 0 .974 1 0 1h-6.538zm12.001-.704c-.974-.059-.979-1.354 0-1.294l11.536.702c.974.059.979 1.353 0 1.294l-11.536-.702zm23.771-.036c-.89-.296-.5-1.513.4-1.213 1.982.659 4.045.874 6.152.568.95-.138 1.354 1.075.4 1.213-2.372.345-4.71.179-6.952-.568zm18.195.74c-.932 0-.93-1 0-1h8.604c.932 0 .93 1 0 1h-8.604zm16.84-.684c-.943-.18-.541-1.48.396-1.299 3.432.66 6.867.8 10.353.453.956-.095.945 1.254 0 1.348-3.624.36-7.187.183-10.75-.502zM322.73 2c-.975 0-.974-1 0-1h6.539c.975 0 .972 1 0 1h-6.54zm14.99-.761c-.958-.07-.964-1.305 0-1.236L348.28.76c.957.068.963 1.305 0 1.236L337.72 1.24zm15 .761c-.962 0-.96-1 0-1h18.558c.962 0 .96 1 0 1H352.72zm27.821-.694c-.951-.193-.545-1.479.403-1.287a82.981 82.981 0 0 0 15.324 1.647c.975.015.975 1.349 0 1.334a85.18 85.18 0 0 1-15.727-1.694zM406.73 2c-.975 0-.972-1 0-1h6.54c.974 0 .973 1 0 1h-6.54zm15.015 0c-.995 0-.992-1 0-1h12.511c.993 0 .99 1 0 1h-12.511zm20.944 0c-.92 0-.918-1 0-1h4.623c.918 0 .917 1 0 1h-4.623z"/>
</svg>
