<svg xmlns="http://www.w3.org/2000/svg" width="375" height="3" viewBox="0 0 375 3">
    <path fill="#036D58" fill-opacity=".23" fill-rule="evenodd" d="M.603 2.165c-.805 0-.804-1.334 0-1.334h6.074c.804 0 .803 1.334 0 1.334H.603zm16.2-.264c-.803.07-.796-1.265 0-1.333a30.804 30.804 0 0 1 9.618.687c.786.18.451 1.465-.332 1.286a29.75 29.75 0 0 0-9.287-.64zm15.522.504c-.796-.076-.801-1.41 0-1.334 3.132.295 6.214.102 9.29-.61.784-.183 1.116 1.103.332 1.285a29.799 29.799 0 0 1-9.622.659zm14.843-.24c-.805 0-.803-1.334 0-1.334h8.098c.804 0 .803 1.334 0 1.334h-8.098zm13.501-.217c-.802.074-.795-1.26 0-1.334a33.947 33.947 0 0 1 10.3.628c.788.168.453 1.453-.332 1.286a32.798 32.798 0 0 0-9.968-.58zm22.947.67c-.798.099-.788-1.236 0-1.333L91.02.378c.797-.098.788 1.237 0 1.333l-7.404.907zm15.516-.453c-.805 0-.804-1.334 0-1.334h7.423c.804 0 .803 1.334 0 1.334h-7.423zm13.955-.371c-.772-.237-.442-1.524.331-1.287 2.122.65 4.275.83 6.46.49.787-.123 1.123 1.163.332 1.285-2.415.377-4.774.23-7.123-.488zm14.537.393c-.786.127-1.123-1.158-.331-1.285a25.89 25.89 0 0 1 9.763.262c.788.172.453 1.457-.331 1.286-3.02-.66-6.05-.753-9.1-.263zm16.227.391c-.786.113-1.123-1.171-.332-1.287l6.054-.873c.788-.113 1.124 1.172.332 1.286l-6.054.874zm15.347-.2c-.793-.087-.798-1.422 0-1.334 2.91.318 5.768.136 8.621-.575.783-.196 1.113 1.091.332 1.287a25.287 25.287 0 0 1-8.953.622zm16.192-.213c-.805 0-.804-1.334 0-1.334h10.797c.804 0 .803 1.334 0 1.334H175.39zm18.148 0c-.805 0-.804-1.334 0-1.334h5.398c.804 0 .803 1.334 0 1.334h-5.398zm10.131-.362c-.798-.06-.802-1.395 0-1.333l9.448.723c.798.06.802 1.395 0 1.334l-9.448-.724zm19.363-.054c-.738-.313-.415-1.604.331-1.286 1.641.698 3.35.927 5.095.602.787-.146 1.122 1.14.332 1.286-1.965.365-3.901.189-5.758-.602zm15.045.416c-.804 0-.802-1.334 0-1.334h7.425c.803 0 .801 1.334 0 1.334h-7.425zm14.64-.362c-.786-.18-.45-1.465.332-1.286a25.21 25.21 0 0 0 8.642.448c.799-.094.79 1.241 0 1.334-3.025.357-6 .182-8.973-.496zm17.079.362c-.805 0-.804-1.334 0-1.334h5.399c.804 0 .802 1.334 0 1.334h-5.4zm12.835-.409c-.796-.075-.801-1.408 0-1.334 2.922.272 5.844.545 8.765.819.794.073.8 1.408 0 1.334-2.921-.274-5.843-.547-8.765-.819zm12.458.41c-.805 0-.804-1.335 0-1.335h15.521c.805 0 .804 1.334 0 1.334H295.09zm23.166-.86c-.783-.193-.449-1.479.332-1.287a56.797 56.797 0 0 0 12.62 1.647c.803.015.803 1.349 0 1.334a58.305 58.305 0 0 1-12.952-1.694zm22.4.86c-.805 0-.803-1.335 0-1.335h5.399c.804 0 .803 1.334 0 1.334h-5.4zm12.147 0c-.804 0-.802-1.335 0-1.335h10.124c.804 0 .802 1.334 0 1.334h-10.124zm17.547 0c-.805 0-.804-1.335 0-1.335h4.049c.803 0 .802 1.334 0 1.334h-4.05z"/>
</svg>
