<svg xmlns="http://www.w3.org/2000/svg" width="549" height="3" viewBox="0 0 549 3">
    <path fill="#2B3936" fill-rule="nonzero" d="M204.811.018c6.78.96 13.615 1.471 20.572 1.543 1.308.014 1.308 1.264 0 1.25a162.176 162.176 0 0 1-21.112-1.587c-1.277-.18-.732-1.386.54-1.206zm-58.743.375l.135.003c4.763.255 9.526.51 14.287.767 1.295.069 1.303 1.32 0 1.25l-14.287-.767c-1.204-.065-1.297-1.148-.26-1.246l.125-.007zm213.784.014c6.116.68 12.231.889 18.43.653 1.31-.049 1.3 1.201 0 1.25-6.386.242-12.68.002-18.97-.698-1.29-.143-.74-1.348.54-1.205zm115.512.769c1.282.169.735 1.373-.54 1.205a83.6 83.6 0 0 0-15.138-.6c-1.309.066-1.297-1.185 0-1.25a86.528 86.528 0 0 1 15.678.645zM345.274.578c1.288.089 1.3 1.34 0 1.25a57.142 57.142 0 0 0-12.953.546c-1.271.2-1.806-1.005-.54-1.205a59.552 59.552 0 0 1 13.492-.591zM531.187.576a95.513 95.513 0 0 1 16.788.588c1.285.158.739 1.362-.54 1.205a92.31 92.31 0 0 0-16.248-.543c-1.307.069-1.295-1.181 0-1.25zm-30.516 1.06a83.717 83.717 0 0 1-15.685.618c-1.297-.071-1.305-1.321 0-1.25 5.106.277 10.13.096 15.143-.572 1.279-.171 1.82 1.034.542 1.205zM49.598.435a24.06 24.06 0 0 0 8.305.564c1.282-.137 1.828 1.068.54 1.205-3.202.342-6.359.177-9.385-.564-1.205-.294-.676-1.503.54-1.205zM17.362.44l.135.001 15.4.678c1.254.055 1.304 1.22.135 1.251h-.135l-15.4-.679c-1.207-.053-1.3-1.135-.26-1.243l.125-.008zM321.11 1.706l-9.905.646c-1.303.085-1.289-1.166 0-1.25l9.905-.646c1.303-.084 1.289 1.167 0 1.25zM97.985.485c4.67.612 9.344.742 14.087.42 1.302-.088 1.287 1.163 0 1.25-4.93.334-9.78.17-14.627-.465-1.282-.168-.735-1.373.54-1.205zM9.781.779c1.265 0 1.309 1.162.136 1.245l-.136.005H.983C-.282 2.029-.325.867.848.784L.983.779h8.798zm75.903 0c1.263 0 1.305 1.162.135 1.245l-.135.005H73.582c-1.265 0-1.307-1.162-.135-1.245l.135-.005h12.102zm48.399 0c1.264 0 1.306 1.162.135 1.245l-.135.005h-8.8c-1.265 0-1.309-1.162-.136-1.245l.136-.005h8.8zm57.727 0c1.264 0 1.308 1.162.135 1.245l-.135.005h-25.3c-1.265 0-1.309-1.162-.136-1.245l.136-.005h25.3zm57.772 0c1.264 0 1.308 1.162.135 1.245l-.135.005h-8.8c-1.265 0-1.307-1.162-.135-1.245l.135-.005h8.8zm27.5 0c1.263 0 1.306 1.162.135 1.245l-.135.005h-16.5c-1.265 0-1.307-1.162-.135-1.245l.135-.005h16.5zm18.7 0c1.263 0 1.307 1.162.135 1.245l-.135.005h-6.6c-1.265 0-1.308-1.162-.135-1.245l.135-.005h6.6zm117.7 0c1.263 0 1.307 1.162.135 1.245l-.135.005h-16.5c-1.265 0-1.308-1.162-.135-1.245l.135-.005h16.5zm29.7 0c1.264 0 1.308 1.162.135 1.245l-.136.005h-9.9c-1.264 0-1.308-1.162-.135-1.245l.135-.005h9.9zm65.999 0h13.2c1.264 0 1.308 1.162.135 1.245l-.135.005h-13.2c-1.265 0-1.307-1.162-.135-1.245l.135-.005h13.2z"/>
</svg>
