<svg xmlns="http://www.w3.org/2000/svg" width="10" height="8" viewBox="0 0 10 8">
    <path fill="#D5E8AD" fill-rule="evenodd" d="M9.97.649a.842.842 0 0 0-.395-.517.807.807 0 0 0-.373-.11c-.478-.05-.814-.014-1.012.102a1.218 1.218 0 0 0-.387.379c-.31.453-.594.824-.843 1.103-.605.68-1.3 1.703-2.08 3.082C4.051 3.53 3.392 2.512 2.92 1.66A24.509 24.509 0 0 0 2.316.635a1.304 1.304 0 0 0-.365-.429.866.866 0 0 0-.516-.196 7.094 7.094 0 0 0-.59.01.849.849 0 0 0-.685 1.347c.804 1.118 1.45 2.12 1.925 2.975.516.932 1.24 2.043 2.147 3.306A.841.841 0 0 0 4.921 8a.84.84 0 0 0 .733-.427c.811-1.417 1.513-2.461 2.086-3.105.615-.69 1.318-1.73 2.146-3.174A.845.845 0 0 0 9.97.649"/>
</svg>
