<?xml version="1.0" encoding="UTF-8"?>
<svg width="212px" height="10px" viewBox="0 0 212 10" version="1.1" xmlns="http://www.w3.org/2000/svg" xmlns:xlink="http://www.w3.org/1999/xlink">
    <!-- Generator: sketchtool 53 (72520) - https://sketchapp.com -->
    <title>9FAC08AF-3D79-4417-99CF-4292C9319C34</title>
    <desc>Created with sketchtool.</desc>
    <g id="Newsroom" stroke="none" stroke-width="1" fill="none" fill-rule="evenodd">
        <g id="Jamba&gt;NewsroomArticle_Desk" transform="translate(-615.000000, -534.000000)" fill="#F37B3E">
            <g id="Section-Headline" transform="translate(378.000000, 360.000000)">
                <path d="M238.0063,175.888015 C236.994844,176.045169 236.564478,174.615959 237.579782,174.458213 C240.73088,173.968367 243.863379,173.862807 247.042056,174.182452 C248.058643,174.284454 248.06634,175.768222 247.042056,175.665034 C244.01282,175.360809 241.012446,175.420705 238.0063,175.888015 Z M253.366188,176.47322 C252.34896,176.314287 252.783174,174.886264 253.792064,175.043417 C255.8541,175.365434 257.916135,175.687451 259.978171,176.009468 C260.994758,176.168401 260.561185,177.597017 259.551653,177.43927 C257.489618,177.117253 255.428224,176.795237 253.366188,176.47322 Z M264.749458,178.691637 C263.722609,178.632334 263.719402,177.149159 264.749458,177.209055 C267.060991,177.342487 269.372523,177.475327 271.684696,177.608759 C272.710904,177.668062 272.714752,179.150645 271.684696,179.091341 C269.372523,178.957909 267.060991,178.82507 264.749458,178.691637 Z M281.709653,180.794176 C280.675749,180.806037 280.678956,179.323454 281.709653,179.311594 C284.895386,179.275419 288.038146,179.533388 291.170644,180.068304 C292.185307,180.241469 291.752376,181.670086 290.744127,181.498106 C287.752091,180.986912 284.750434,180.75978 281.709653,180.794176 Z M306.761044,182.938998 C305.727782,182.938998 305.729706,181.456416 306.761044,181.456416 L319.865714,181.456416 C320.898976,181.456416 320.897052,182.938998 319.865714,182.938998 L306.761044,182.938998 Z M327.575225,183.264455 C326.546452,183.218198 326.543887,181.735616 327.575225,181.781872 C332.329773,181.994771 337.08432,182.20767 341.838868,182.420569 C342.868282,182.466825 342.870847,183.949408 341.838868,183.903151 C337.08432,183.690252 332.329773,183.477353 327.575225,183.264455 Z M347.999127,183.995901 C346.970354,184.087821 346.980616,182.604053 347.999127,182.513319 C355.435924,181.849122 362.885549,181.617839 370.353773,181.818878 C371.385112,181.846157 371.385753,183.329332 370.353773,183.30146 C362.885549,183.100422 355.435924,183.331705 347.999127,183.995901 Z M377.294656,183.695352 C376.262676,183.758214 376.269731,182.275632 377.294656,182.21277 C383.203686,181.85102 389.113359,181.488677 395.022389,181.126334 C396.053728,181.063472 396.046031,182.546648 395.022389,182.608916 C389.113359,182.971259 383.203686,183.333602 377.294656,183.695352 Z M402.565271,183.661431 C401.559587,183.875516 401.134353,182.446306 402.138753,182.231629 C403.687044,181.901902 405.235334,181.572176 406.783625,181.241857 C407.789949,181.027772 408.215184,182.457574 407.209501,182.671659 C405.661852,183.001385 404.113561,183.331705 402.565271,183.661431 Z M419.301239,183.651586 C418.267976,183.651586 418.269259,182.169004 419.301239,182.169004 L425.467463,182.169004 C426.501367,182.169004 426.499443,183.651586 425.467463,183.651586 L419.301239,183.651586 Z M432.019862,182.938998 C430.986599,182.938998 430.987882,181.456416 432.019862,181.456416 L437.801258,181.456416 C438.833879,181.456416 438.832597,182.938998 437.801258,182.938998 L432.019862,182.938998 Z M443.739472,182.643312 C442.720961,182.493275 443.155816,181.064658 444.165348,181.21351 C445.583438,181.42285 447.001529,181.631598 448.419619,181.840938 C449.437488,181.990976 449.002633,183.419592 447.993743,183.270741 C446.575652,183.0614 445.157562,182.852653 443.739472,182.643312 Z" id="Underline"></path>
            </g>
        </g>
    </g>
</svg>