<svg xmlns="http://www.w3.org/2000/svg" width="265" height="14" viewBox="0 0 265 14">
    <path fill="#B3D343" fill-rule="evenodd" d="M1.256 3.254c-1.262.206-1.8-1.669-.532-1.876 3.933-.642 7.843-.78 11.811-.361 1.269.134 1.279 2.08 0 1.944-3.781-.399-7.526-.32-11.279.293zm19.173.767c-1.27-.208-.728-2.081.532-1.875l7.722 1.267c1.269.208.727 2.082-.533 1.875l-7.72-1.267zm14.21 2.91c-1.282-.078-1.286-2.023 0-1.945l8.656.524c1.281.078 1.286 2.023 0 1.945l-8.657-.524zm21.17 2.757c-1.29.016-1.287-1.929 0-1.944 3.977-.048 7.9.29 11.81.992 1.266.227.726 2.101-.533 1.875a59.562 59.562 0 0 0-11.277-.923zm31.27 2.813c-1.29 0-1.287-1.944 0-1.944h16.358c1.29 0 1.288 1.944 0 1.944H87.08zm25.982.427c-1.284-.06-1.288-2.005 0-1.944l17.804.837c1.285.061 1.289 2.005 0 1.945l-17.804-.838zm25.494.96c-1.284.12-1.271-1.826 0-1.945a229.043 229.043 0 0 1 27.904-.91c1.288.035 1.288 1.98 0 1.944-9.322-.264-18.621.04-27.904.91zm36.568-.395c-1.288.083-1.28-1.862 0-1.944l22.129-1.425c1.287-.083 1.278 1.863 0 1.944-7.376.476-14.753.95-22.129 1.425zm31.544-.044c-1.255.28-1.786-1.594-.532-1.876 1.933-.432 3.865-.864 5.798-1.298 1.256-.28 1.787 1.595.532 1.876l-5.798 1.298zm20.891-.013c-1.29 0-1.288-1.945 0-1.945h7.697c1.29 0 1.288 1.945 0 1.945h-7.697zm15.876-.935c-1.29 0-1.288-1.944 0-1.944h7.217c1.289 0 1.287 1.944 0 1.944h-7.217zm14.63-.388c-1.272-.196-.73-2.07.53-1.875l5.311.823c1.27.197.728 2.07-.531 1.875l-5.31-.823z"/>
</svg>
