<svg height="54" viewBox="0 0 50 54" width="50" xmlns="http://www.w3.org/2000/svg"><g fill="none" fill-rule="evenodd"><path d="m24.9578212 49.8233887c13.7835196 0 24.9579609-11.1540697 24.9579609-24.9123217 0-13.7583914-11.1744413-24.911067-24.9579609-24.911067-13.7833799 0-24.9578212 11.1526756-24.9578212 24.911067 0 13.758252 11.1744413 24.9123217 24.9578212 24.9123217" fill="#cd4b0f"/><path d="m4.84022346 9.21821984c6.79106144 3.55482036 14.31215084 5.59188206 21.92220674 6.32030026 1.2769553.1217051 2.6076815.2008901 3.8051676-.2658552 1.1960894-.4668847 2.2234637-1.6295657 2.1356145-2.9253834-.0664805-.9902306-.7424581-1.8276676-1.4751397-2.48693834-2.1484637-1.93654691-4.9885475-2.9366756-7.8370111-3.33831635-2.9874302-.42157641-6.3177375-.1230992-8.5399442 1.94072922-2.5310056 2.34961927-2.875419 6.45204287-1.5645251 9.67018767 1.3108938 3.2153566 3.9610335 5.6767828 6.7655028 7.6883324 2.2136871 1.587185 4.6171787 2.9847722 7.2574022 3.6072386 2.6416201.6251153 5.5596369.404429 7.8540503-1.0567292.34581-.2206863.7071229-.5191635.7425978-.9322359.0255586-.3126971-.1445531-.6054584-.3301676-.8572332-1.7388269-2.3723432-4.9970671-3.0031743-7.9078213-2.8335121-2.8656424.1656193-6.0656424 1.2393566-7.1865922 3.9142198-.9607541 2.2902306-.0340782 4.9624451 1.332123 7.0318499 2.1611731 3.2734906 5.4448324 5.7701877 9.1506983 6.957126 1.5731843.5035496 3.7994413.454059 4.2884078-1.14163-1.0657821-2.1586274-4.3294693-2.4769008-6.1363129-.9068633-1.8082402 1.5703164-2.1867318 4.3840322-1.4002793 6.661437.7879888 2.2787989 2.5325419 4.0882038 4.4244414 5.5564718" stroke="#fffffe" stroke-linecap="round" stroke-linejoin="round" stroke-width="2.48598"/></g></svg>