<?xml version="1.0" encoding="utf-8"?>
<!-- Generator: Adobe Illustrator 23.0.3, SVG Export Plug-In . SVG Version: 6.00 Build 0)  -->
<svg version="1.1" xmlns="http://www.w3.org/2000/svg" xmlns:xlink="http://www.w3.org/1999/xlink" x="0px" y="0px"
	 viewBox="0 0 100 100" style="enable-background:new 0 0 100 100;" xml:space="preserve">
<style type="text/css">
	.st0{display:none;}
	.st1{display:inline;fill:#F2D2C6;}
	.st2{display:inline;}
	.st3{fill:none;stroke:#026E59;stroke-width:1.656;stroke-linecap:round;stroke-linejoin:round;stroke-miterlimit:10;}
	.st4{display:inline;fill:#DBE5B4;}
	.st5{fill:#026E59;}
	.st6{fill:none;stroke:#026E59;stroke-width:1.3;stroke-linecap:round;stroke-linejoin:round;stroke-miterlimit:10;}
	.st7{fill:#C6D8D5;}
	.st8{fill:#FFFFFF;stroke:#026E59;stroke-width:1.656;stroke-linecap:round;stroke-linejoin:round;stroke-miterlimit:10;}
</style>
<g id="Layer_3">
</g>
<g id="SMOOTHIE" class="st0">
	<path class="st1" d="M70.5,35.2c-0.6-1.3-1.6-2.8-2-3.8c-0.5-1.3-1.1-1.6-1.9-2.7c-0.2-0.2-0.2-0.6-0.4-0.8c-0.5-0.6-2-2.3-2.6-2.9
		c-0.4-0.4-7.4-4-9.4-4.6c-0.5-0.2-2-0.2-2.5-0.1c-1.7,0.1-7.4,3.1-8.8,4.1c-0.3,0.2-0.6,0.4-0.8,0.7c-1.2,1.2-4,3.2-4.6,4.8
		c-0.4,1-1,1.5-1.4,2.5c-0.2,0.6-1.1,3.4-1.4,4c-0.7,1.7-1.2,3.5-1,4.9c0,0,5.1,49.9,6.2,50.9c3.5,3.5,22.2,3.6,25.7,0
		c1.1-1.1,6.2-50.9,6.2-50.9C72.1,38.8,71.3,37,70.5,35.2z"/>
	<g class="st2">
		<path class="st3" d="M29.2,34.2c0,0,5.5,53.6,6.6,54.8c3.8,3.8,23.9,3.8,27.7,0c1.2-1.2,6.6-54.8,6.6-54.8"/>
		<line class="st3" x1="68.7" y1="9.2" x2="46.6" y2="84.2"/>
		<path class="st3" d="M23.8,20c5.7,1.3,11.6,1.4,17.4,0.6c1-0.1,2-0.3,2.8-0.9c0.8-0.6,1.3-1.6,1-2.5c-0.2-0.7-0.9-1.2-1.5-1.5
			c-1.9-1-4.2-1.2-6.4-1c-2.3,0.2-4.7,1.1-6,3c-1.4,2.2-1,5.2,0.6,7.3s4,3.4,6.4,4.4c1.9,0.8,4,1.3,6,1.3c2.1,0,4.2-0.7,5.6-2.2
			c0.2-0.2,0.4-0.5,0.4-0.8c0-0.2-0.2-0.4-0.4-0.6c-1.7-1.4-4.2-1.3-6.4-0.6c-2.1,0.7-4.3,2-4.6,4.2c-0.3,1.9,0.9,3.6,2.3,4.9
			c2.2,2,5.1,3.2,8,3.4c1.3,0.1,2.9-0.4,3-1.6c-1.2-1.4-3.7-1-4.7,0.5c-1.1,1.5-0.8,3.6,0.2,5.1s2.6,2.5,4.3,3.2"/>
	</g>
</g>
<g id="JUICES" class="st0">
	<path class="st4" d="M52.6,42.6c-3.4,0-6.8-0.6-10.1-0.9c-3.4-0.3-6.9-0.1-9.9,1.6c0,0,4.3,47.6,5.4,48.7c3.7,3.7,23.4,3.7,27.1,0
		c1.2-1.2,6.3-49.4,6.3-49.4c-2.7-0.8-5.5-1.1-8.3-1C59.5,41.8,56.1,42.6,52.6,42.6z"/>
	<g class="st2">
		<path class="st3" d="M29.9,36.9c0,0,5.2,50.5,6.2,51.5c3.5,3.5,22.5,3.6,26.1,0c1.1-1.1,6.2-51.5,6.2-51.5"/>
		<line class="st3" x1="67.1" y1="13.3" x2="46.3" y2="83.9"/>
		<path class="st5" d="M70,36.9H28.3c-0.8,0-1.4-0.6-1.4-1.4v-0.8c0-0.8,0.6-1.4,1.4-1.4H70c0.8,0,1.4,0.6,1.4,1.4v0.8
			C71.3,36.2,70.7,36.9,70,36.9z"/>
		<path class="st6" d="M30.9,41.6c2.8-1.6,6.3-1.8,9.5-1.5c3.3,0.3,6.5,0.9,9.8,0.9c3.4,0,6.7-0.8,10-1c2.7-0.1,5.4,0.2,8,1"/>
	</g>
</g>
<g id="BOWLS">
	<path class="st7" d="M51.2,54H16.6c0,0-1.5,19.3,15.5,36.3c5.2,5.2,32.9,5.3,38.2,0c17-17,15.5-36.3,15.5-36.3H51.2z"/>
	<g>
		<g>
			<g>
				<path class="st3" d="M15.6,42.7c7.3-1,15.1-2.8,19.6-8.6c0.4-0.5,0.8-1.2,0.5-1.8c-0.3-0.7-1.1-0.8-1.8-0.8
					c-4,0-7.9,1.8-10.6,4.7c-1.4,1.6-2.5,3.8-1.8,5.7c0.9,2.6,4.2,3.2,6.9,3.5c3.2,0.3,6.5,0.5,9.7-0.3s9.6-3.1,7.9-5.5
					c-1.4-1.4-5.7,0-7.7,1.8c-0.9,0.9-1.7,2.1-1.4,3.4c0.4,1.8,2.7,2.4,4.6,2.6c9.5,0.9,19.2-0.5,28.2-3.8"/>
			</g>
		</g>
		<path class="st3" d="M66.6,88c-5.2,5.2-32.7,5.1-37.8,0C12,71.2,13.5,52.1,13.5,52.1h34.3H82C82,52.1,83.4,71.2,66.6,88z"/>
		<g>
			<path class="st8" d="M62,59.5L88.6,28c0.4-0.5,1.1-0.5,1.6-0.1l1.2,1c0.5,0.4,0.5,1.1,0.1,1.6L64.6,62.2"/>
			<path class="st8" d="M50.1,64.8c4.3-5.1,9.6-7,13.2-3.9c3.6,3,2.7,8.4-1.7,13.7c-4.1,4.9-11.4,8.3-14.6,5.6
				C43.8,77.5,45.9,69.7,50.1,64.8z"/>
			<path class="st3" d="M50.5,75.9c-1.5-1.3-0.5-5,1.5-7.4"/>
		</g>
	</g>
</g>
</svg>
