<?xml version="1.0" encoding="utf-8"?>
<!-- Generator: Adobe Illustrator 23.0.3, SVG Export Plug-In . SVG Version: 6.00 Build 0)  -->
<svg version="1.1" xmlns="http://www.w3.org/2000/svg" xmlns:xlink="http://www.w3.org/1999/xlink" x="0px" y="0px"
	 viewBox="0 0 100 100" style="enable-background:new 0 0 100 100;" xml:space="preserve">
<style type="text/css">
	.st0{display:none;}
	.st1{display:inline;fill:#F2D2C6;}
	.st2{display:inline;}
	.st3{fill:none;stroke:#026E59;stroke-width:1.656;stroke-linecap:round;stroke-linejoin:round;stroke-miterlimit:10;}
	.st4{display:inline;fill:#DBE5B4;}
	.st5{fill:#026E59;}
	.st6{fill:none;stroke:#026E59;stroke-width:1.3;stroke-linecap:round;stroke-linejoin:round;stroke-miterlimit:10;}
	.st7{display:inline;fill:#C6D8D5;}
	.st8{fill:#FFFFFF;stroke:#026E59;stroke-width:1.656;stroke-linecap:round;stroke-linejoin:round;stroke-miterlimit:10;}
	.st9{fill:#F2D2C6;}
	.st10{display:inline;fill:none;stroke:#026E59;stroke-width:3;stroke-linecap:round;stroke-linejoin:round;stroke-miterlimit:10;}
	.st11{fill:none;stroke:#F2D2C6;stroke-width:0.7514;stroke-linecap:round;stroke-linejoin:round;stroke-miterlimit:10;}
	.st12{fill:none;stroke:#F2D2C6;stroke-width:0.4168;stroke-linecap:round;stroke-linejoin:round;stroke-miterlimit:10;}
	.st13{fill:#F5ECAF;}
</style>
<g id="Layer_3">
</g>
<g id="SMOOTHIE" class="st0">
	<path class="st1" d="M70.5,35.2c-0.6-1.3-1.6-2.8-2-3.8c-0.5-1.3-1.1-1.6-1.9-2.7c-0.2-0.2-0.2-0.6-0.4-0.8c-0.5-0.6-2-2.3-2.6-2.9
		c-0.4-0.4-7.4-4-9.4-4.6c-0.5-0.2-2-0.2-2.5-0.1c-1.7,0.1-7.4,3.1-8.8,4.1c-0.3,0.2-0.6,0.4-0.8,0.7c-1.2,1.2-4,3.2-4.6,4.8
		c-0.4,1-1,1.5-1.4,2.5c-0.2,0.6-1.1,3.4-1.4,4c-0.7,1.7-1.2,3.5-1,4.9c0,0,5.1,49.9,6.2,50.9c3.5,3.5,22.2,3.6,25.7,0
		c1.1-1.1,6.2-50.9,6.2-50.9C72.1,38.8,71.3,37,70.5,35.2z"/>
	<g class="st2">
		<path class="st3" d="M29.2,34.2c0,0,5.5,53.6,6.6,54.8c3.8,3.8,23.9,3.8,27.7,0c1.2-1.2,6.6-54.8,6.6-54.8"/>
		<line class="st3" x1="68.7" y1="9.2" x2="46.6" y2="84.2"/>
		<path class="st3" d="M23.8,20c5.7,1.3,11.6,1.4,17.4,0.6c1-0.1,2-0.3,2.8-0.9c0.8-0.6,1.3-1.6,1-2.5c-0.2-0.7-0.9-1.2-1.5-1.5
			c-1.9-1-4.2-1.2-6.4-1c-2.3,0.2-4.7,1.1-6,3c-1.4,2.2-1,5.2,0.6,7.3s4,3.4,6.4,4.4c1.9,0.8,4,1.3,6,1.3c2.1,0,4.2-0.7,5.6-2.2
			c0.2-0.2,0.4-0.5,0.4-0.8c0-0.2-0.2-0.4-0.4-0.6c-1.7-1.4-4.2-1.3-6.4-0.6c-2.1,0.7-4.3,2-4.6,4.2c-0.3,1.9,0.9,3.6,2.3,4.9
			c2.2,2,5.1,3.2,8,3.4c1.3,0.1,2.9-0.4,3-1.6c-1.2-1.4-3.7-1-4.7,0.5c-1.1,1.5-0.8,3.6,0.2,5.1s2.6,2.5,4.3,3.2"/>
	</g>
</g>
<g id="JUICES" class="st0">
	<path class="st4" d="M52.6,42.6c-3.4,0-6.8-0.6-10.1-0.9c-3.4-0.3-6.9-0.1-9.9,1.6c0,0,4.3,47.6,5.4,48.7c3.7,3.7,23.4,3.7,27.1,0
		c1.2-1.2,6.3-49.4,6.3-49.4c-2.7-0.8-5.5-1.1-8.3-1C59.5,41.8,56.1,42.6,52.6,42.6z"/>
	<g class="st2">
		<path class="st3" d="M29.9,36.9c0,0,5.2,50.5,6.2,51.5c3.5,3.5,22.5,3.6,26.1,0c1.1-1.1,6.2-51.5,6.2-51.5"/>
		<line class="st3" x1="67.1" y1="13.3" x2="46.3" y2="83.9"/>
		<path class="st5" d="M70,36.9H28.3c-0.8,0-1.4-0.6-1.4-1.4v-0.8c0-0.8,0.6-1.4,1.4-1.4H70c0.8,0,1.4,0.6,1.4,1.4v0.8
			C71.3,36.2,70.7,36.9,70,36.9z"/>
		<path class="st6" d="M30.9,41.6c2.8-1.6,6.3-1.8,9.5-1.5c3.3,0.3,6.5,0.9,9.8,0.9c3.4,0,6.7-0.8,10-1c2.7-0.1,5.4,0.2,8,1"/>
	</g>
</g>
<g id="BOWLS" class="st0">
	<path class="st7" d="M51.2,54H16.6c0,0-1.5,19.3,15.5,36.3c5.2,5.2,32.9,5.3,38.2,0c17-17,15.5-36.3,15.5-36.3H51.2z"/>
	<g class="st2">
		<g>
			<g>
				<path class="st3" d="M15.6,42.7c7.3-1,15.1-2.8,19.6-8.6c0.4-0.5,0.8-1.2,0.5-1.8c-0.3-0.7-1.1-0.8-1.8-0.8
					c-4,0-7.9,1.8-10.6,4.7c-1.4,1.6-2.5,3.8-1.8,5.7c0.9,2.6,4.2,3.2,6.9,3.5c3.2,0.3,6.5,0.5,9.7-0.3s9.6-3.1,7.9-5.5
					c-1.4-1.4-5.7,0-7.7,1.8c-0.9,0.9-1.7,2.1-1.4,3.4c0.4,1.8,2.7,2.4,4.6,2.6c9.5,0.9,19.2-0.5,28.2-3.8"/>
			</g>
		</g>
		<path class="st3" d="M66.6,88c-5.2,5.2-32.7,5.1-37.8,0C12,71.2,13.5,52.1,13.5,52.1h34.3H82C82,52.1,83.4,71.2,66.6,88z"/>
		<g>
			<path class="st8" d="M62,59.5L88.6,28c0.4-0.5,1.1-0.5,1.6-0.1l1.2,1c0.5,0.4,0.5,1.1,0.1,1.6L64.6,62.2"/>
			<path class="st8" d="M50.1,64.8c4.3-5.1,9.6-7,13.2-3.9c3.6,3,2.7,8.4-1.7,13.7c-4.1,4.9-11.4,8.3-14.6,5.6
				C43.8,77.5,45.9,69.7,50.1,64.8z"/>
			<path class="st3" d="M50.5,75.9c-1.5-1.3-0.5-5,1.5-7.4"/>
		</g>
	</g>
</g>
<g id="BOOSTS" class="st0">
	<g class="st2">
		<polygon class="st9" points="80.2,29.7 86.7,16.2 71.1,17 		"/>
		<g class="st0">
			<polygon class="st10" points="70.2,4.3 91,3.1 82.2,21.1 			"/>
			<path class="st10" d="M8.3,105.1C2.9,97.2,0.9,87.4,1,77.9c0.1-5.7,0.9-11.5,3.5-16.6s7.1-9.4,12.7-10.6c4.6-1.1,9.6,0,13.8,2.2
				c7.9,4,13.7,11.9,15.3,20.6c0.5,2.9,0.5,6.3-1.6,8.4c-1.7,1.6-4.4,2-6.6,1.3c-2.2-0.7-4.1-2.4-5.5-4.3
				c-3.4-4.6-4.3-10.5-4.9-16.1c-0.4-3.6-0.8-7.3-0.5-10.9c0.5-5.5,2.9-10.8,6.9-14.6c4-3.8,9.7-5.9,15.1-5.1s10.5,4.6,12.3,9.8
				c0.9,2.6,0.7,6.2-1.8,7.5c-2.2,1.1-5.1-0.4-6.2-2.6s-0.8-4.9-0.2-7.4c2.9-11.7,12.7-20.3,22.9-26.6"/>
		</g>
		<g>
			<path class="st11" d="M26.6,40c0.7,1.1,1.3,2.2,2,3.3"/>
			<path class="st11" d="M26,42.8c1.3-0.8,2.4-1.4,3.7-2.1"/>
			<path class="st11" d="M27.8,39.7c0,0.7,0,1.4-0.1,2c-0.1,0.6-0.2,1.3-0.3,1.9"/>
			<path class="st11" d="M25.8,41.5c0.5,0,1.1,0,1.6,0.1c0.6,0.1,1.2,0.3,1.8,0.4"/>
		</g>
		<g>
			<path class="st11" d="M86.1,13.1c0.7,1.1,1.3,2.2,2,3.3"/>
			<path class="st11" d="M85.5,15.9c1.3-0.8,2.4-1.4,3.7-2.1"/>
			<path class="st11" d="M87.3,12.8c0,0.7,0,1.4-0.1,2c-0.1,0.6-0.2,1.3-0.3,1.9"/>
			<path class="st11" d="M85.3,14.6c0.5,0,1.1,0,1.6,0.1c0.6,0.1,1.2,0.3,1.8,0.4"/>
		</g>
		<g>
			<path class="st11" d="M70.1,27.4c0.7,1.1,1.3,2.2,2,3.3"/>
			<path class="st11" d="M69.5,30.2c1.3-0.8,2.4-1.4,3.7-2.1"/>
			<path class="st11" d="M71.3,27.1c0,0.7,0,1.4-0.1,2C71.2,29.7,71,30.4,71,31"/>
			<path class="st11" d="M69.3,28.9c0.5,0,1.1,0,1.6,0.1c0.6,0.1,1.2,0.3,1.8,0.4"/>
		</g>
		<g>
			<path class="st12" d="M58.6,17.2c0.4,0.6,0.7,1.2,1.1,1.8"/>
			<path class="st12" d="M58.3,18.8c0.7-0.4,1.3-0.8,2.1-1.2"/>
			<path class="st12" d="M59.3,17c0,0.4,0,0.8,0,1.1c0,0.4-0.1,0.7-0.1,1.1"/>
			<path class="st12" d="M58.2,18.1c0.3,0,0.6,0,0.9,0c0.3,0.1,0.7,0.2,1,0.2"/>
		</g>
		<g>
			<path class="st12" d="M82.3,28.9c0.4,0.6,0.7,1.2,1.1,1.8"/>
			<path class="st12" d="M81.9,30.4c0.7-0.4,1.3-0.8,2.1-1.2"/>
			<path class="st12" d="M82.9,28.7c0,0.4,0,0.8,0,1.1c0,0.4-0.1,0.7-0.1,1.1"/>
			<path class="st12" d="M81.8,29.7c0.3,0,0.6,0,0.9,0c0.3,0.1,0.7,0.2,1,0.2"/>
		</g>
		<g>
			<path class="st12" d="M38.4,32.2c0.4,0.6,0.7,1.2,1.1,1.8"/>
			<path class="st12" d="M38.1,33.8c0.7-0.4,1.3-0.8,2.1-1.2"/>
			<path class="st12" d="M39.1,32c0,0.4,0,0.8,0,1.1c0,0.4-0.1,0.7-0.1,1.1"/>
			<path class="st12" d="M37.9,33.1c0.3,0,0.6,0,0.9,0c0.3,0.1,0.7,0.2,1,0.2"/>
		</g>
		<g>
			<path class="st12" d="M54.6,56.6c0.4,0.6,0.7,1.2,1.1,1.8"/>
			<path class="st12" d="M54.3,58.1c0.7-0.4,1.3-0.8,2.1-1.2"/>
			<path class="st12" d="M55.3,56.4c0,0.4,0,0.8,0,1.1c0,0.4-0.1,0.7-0.1,1.1"/>
			<path class="st12" d="M54.2,57.4c0.3,0,0.6,0,0.9,0c0.3,0.1,0.7,0.2,1,0.2"/>
		</g>
		<g>
			<path class="st11" d="M68.9,41c0.7,1.1,1.3,2.2,2,3.3"/>
			<path class="st11" d="M68.3,43.8c1.3-0.8,2.4-1.4,3.7-2.1"/>
			<path class="st11" d="M70.1,40.7c0,0.7,0,1.4-0.1,2c-0.1,0.6-0.2,1.3-0.3,1.9"/>
			<path class="st11" d="M68.1,42.5c0.5,0,1.1,0,1.6,0.1c0.6,0.1,1.2,0.3,1.8,0.4"/>
		</g>
		<g>
			<path class="st11" d="M45.2,45.5c0.7,1.1,1.3,2.2,2,3.3"/>
			<path class="st11" d="M44.6,48.3c1.3-0.8,2.4-1.4,3.7-2.1"/>
			<path class="st11" d="M46.4,45.1c0,0.7,0,1.4-0.1,2c-0.1,0.6-0.2,1.3-0.3,1.9"/>
			<path class="st11" d="M44.4,47c0.5,0,1.1,0,1.6,0.1c0.6,0.1,1.2,0.3,1.8,0.4"/>
		</g>
		<g>
			<path class="st11" d="M52.2,27.8c0.7,1.1,1.3,2.2,2,3.3"/>
			<path class="st11" d="M51.6,30.5c1.3-0.8,2.4-1.4,3.7-2.1"/>
			<path class="st11" d="M53.4,27.4c0,0.7,0,1.4-0.1,2c-0.1,0.6-0.2,1.3-0.3,1.9"/>
			<path class="st11" d="M51.3,29.3c0.5,0,1.1,0,1.6,0.1c0.6,0.1,1.2,0.3,1.8,0.4"/>
		</g>
	</g>
	<g class="st2">
		<g>
			<polygon class="st3" points="68.5,14.4 84.7,13.5 77.9,27.5 			"/>
			<path class="st3" d="M20.4,92.8c-4.2-6.1-5.8-13.7-5.7-21.2c0.1-4.4,0.7-9,2.7-12.9s5.6-7.3,9.9-8.3c3.6-0.8,7.4,0,10.7,1.7
				c6.1,3.1,10.7,9.2,11.9,16c0.4,2.3,0.4,4.9-1.3,6.5c-1.3,1.3-3.4,1.6-5.1,1c-1.7-0.6-3.2-1.8-4.3-3.3c-2.6-3.6-3.3-8.1-3.8-12.5
				c-0.3-2.8-0.6-5.7-0.4-8.5c0.4-4.3,2.2-8.4,5.3-11.4c3.1-2.9,7.5-4.6,11.7-4s8.1,3.6,9.5,7.6c0.7,2.1,0.5,4.8-1.4,5.8
				c-1.7,0.9-4-0.3-4.9-2c-0.9-1.8-0.7-3.8-0.2-5.7c2.3-9.1,9.9-15.8,17.8-20.7"/>
		</g>
	</g>
</g>
<g id="KIDS" class="st0">
	<path class="st4" d="M53.7,49.8c0,0-29.2-9.9-24.7,21.9c4.4,31.2,23.7,22.9,24.7,22.9c1.1,0,20.6,8.5,24.8-22.9
		C82.7,39.9,53.7,49.8,53.7,49.8z"/>
	<g class="st2">
		<path class="st3" d="M74.8,68C70.6,99.5,51.1,91,50,91c-0.9,0-20.3,8.3-24.8-23C20.7,36.2,50,46.1,50,46.1S79.1,36.2,74.8,68z"/>
		<path class="st3" d="M54.9,61c1.3-1.9,3.3-3.3,5.5-3.5c1.5-0.1,2.9,0.4,4.1,1.3c1.1,0.9,1.9,2.3,2,3.8"/>
		<path class="st3" d="M44.3,61c-1.3-1.9-3.3-3.3-5.5-3.5c-1.5-0.1-2.9,0.4-4.1,1.3s-1.9,2.3-2,3.8"/>
		<path class="st3" d="M40.8,76.8c2.1,3.7,6.4,6,10.6,5.7s8.1-3.2,9.7-7.2"/>
		<path class="st6" d="M35,71.2c1.2-0.5,2.4-1,3.7-1.5"/>
		<path class="st6" d="M62.2,67.7c1.5-0.1,3,0.2,4.3,0.8"/>
		<path class="st5" d="M50.8,46.4c0,0-4.1-11-7.5-11.4c-2.2,0.2-2.8,2.2-2.8,2.9C40.6,38.5,50.6,46.8,50.8,46.4z"/>
		<g>
			<path class="st6" d="M48.9,42c0,0,2.4-11.1,10.5-13.5C59.5,28.5,60.9,38.3,48.9,42z"/>
			<path class="st6" d="M52.3,38.5c1.2-2.1,2.6-4.1,4.4-5.8"/>
		</g>
	</g>
</g>
<g id="Layer_7">
	<g>
		<path class="st13" d="M33.8,92.3c0,0.8,0.6,1.4,1.4,1.4h1.4c0.8,0,1.4-0.6,1.4-1.4V59.5c0,0,13.4-29.8-4.1-48.4V92.3z"/>
		<path class="st13" d="M50.2,25.8v7.6c0,3.9,3.2,7.1,7.1,7.1h2c-0.4,0-0.7,0.3-0.7,0.7v50.2c0,1.2,1,2.2,2.2,2.2h0.3
			c1.2,0,2.2-1,2.2-2.2V41.2c0-0.4-0.3-0.7-0.7-0.7h2c3.9,0,7.1-3.2,7.1-7.1v-7.6H50.2z"/>
	</g>
	<g>
		<path class="st3" d="M31.4,11.3v78.2c0,0.7,0.6,1.3,1.3,1.3h1.4c0.7,0,1.3-0.6,1.3-1.3V57.9C35.4,57.9,48.3,29.3,31.4,11.3z"/>
		<path class="st3" d="M57.7,90.8h-0.3c-1.2,0-2.1-0.9-2.1-2.1V40.4c0-0.3,0.3-0.6,0.6-0.6h3.3c0.3,0,0.6,0.3,0.6,0.6v48.4
			C59.8,89.9,58.9,90.8,57.7,90.8z"/>
		<path class="st3" d="M58.9,39.7h-2.7c-5,0-9-4-9-9v-5.2h20.8v5.2C67.9,35.7,63.9,39.7,58.9,39.7z"/>
		<line class="st3" x1="47.1" y1="11.3" x2="47.1" y2="25.5"/>
		<line class="st3" x1="57.5" y1="11.3" x2="57.5" y2="25.5"/>
		<line class="st3" x1="67.9" y1="11.3" x2="67.9" y2="25.5"/>
	</g>
</g>
</svg>
