<?xml version="1.0" encoding="utf-8"?>
<!-- Generator: Adobe Illustrator 23.0.3, SVG Export Plug-In . SVG Version: 6.00 Build 0)  -->
<svg version="1.1" id="Layer_1" xmlns="http://www.w3.org/2000/svg" xmlns:xlink="http://www.w3.org/1999/xlink" x="0px" y="0px"
	 viewBox="0 0 100 120" style="enable-background:new 0 0 100 120;" xml:space="preserve">
<style type="text/css">
	.st0{fill:#F2D2C6;}
	.st1{fill:none;stroke:#026E59;stroke-width:1.5;stroke-linecap:round;stroke-linejoin:round;stroke-miterlimit:10;}
	.st2{fill:#026E59;}
</style>
<g>
	<path class="st0" d="M84.05,33.1c-10.09-5.88-22.23-0.04-27.48,14.04c-0.36,0.97-0.7,1.94-1.02,2.92l0-0.01
		c-0.32-0.97-0.66-1.94-1.02-2.91c-5.26-14.08-17.4-19.92-27.48-14.04s-14.35,21.14-9.05,35.32c11.09,29.7,37.56,41.04,37.56,41.04
		l0,0c0,0,26.48-11.34,37.56-41.04C98.4,54.24,94.14,38.98,84.05,33.1z"/>
	<g>
		<path class="st1" d="M48.4,102.33c0,0,26.48-11.34,37.56-41.04c5.3-14.19,1.04-29.45-9.05-35.32s-22.23-0.04-27.48,14.04
			c-0.36,0.97-0.7,1.94-1.02,2.92l0-0.01c-0.32-0.97-0.66-1.94-1.02-2.91c-5.26-14.08-17.39-19.92-27.48-14.04
			S5.54,47.1,10.84,61.29C21.93,90.99,48.4,102.33,48.4,102.33L48.4,102.33z"/>
		<g>
			<path class="st1" d="M48.4,6.57v21.92c0,0,1.57-12.6,19.55-12.6"/>
			<path class="st1" d="M48.4,6.57v21.92c0,0-1.57-12.6-19.55-12.6"/>
		</g>
		<g>
			<g>
				<g>
					<path class="st2" d="M48.8,55.09c1.16,0,1.16-1.8,0-1.8C47.64,53.29,47.64,55.09,48.8,55.09L48.8,55.09z"/>
				</g>
			</g>
			<g>
				<g>
					<path class="st2" d="M49.11,73.9c1.16,0,1.16-1.8,0-1.8C47.95,72.1,47.95,73.9,49.11,73.9L49.11,73.9z"/>
				</g>
			</g>
			<g>
				<g>
					<path class="st2" d="M48.8,92.46c1.16,0,1.16-1.8,0-1.8C47.64,90.66,47.64,92.46,48.8,92.46L48.8,92.46z"/>
				</g>
			</g>
			<g>
				<g>
					<path class="st2" d="M61.19,39.99c1.16,0,1.16-1.8,0-1.8C60.03,38.19,60.03,39.99,61.19,39.99L61.19,39.99z"/>
				</g>
			</g>
			<g>
				<g>
					<path class="st2" d="M62.76,60.62c1.16,0,1.16-1.8,0-1.8C61.61,58.82,61.6,60.62,62.76,60.62L62.76,60.62z"/>
				</g>
			</g>
			<g>
				<g>
					<path class="st2" d="M63.89,79.37c1.16,0,1.16-1.8,0-1.8C62.73,77.57,62.73,79.37,63.89,79.37L63.89,79.37z"/>
				</g>
			</g>
			<g>
				<g>
					<path class="st2" d="M78.06,47.63c1.16,0,1.16-1.8,0-1.8C76.9,45.83,76.9,47.63,78.06,47.63L78.06,47.63z"/>
				</g>
			</g>
			<g>
				<g>
					<path class="st2" d="M75.56,64.75c1.16,0,1.16-1.8,0-1.8C74.4,62.95,74.4,64.75,75.56,64.75L75.56,64.75z"/>
				</g>
			</g>
			<g>
				<g>
					<path class="st2" d="M73.2,33.56c1.16,0,1.16-1.8,0-1.8C72.04,31.76,72.04,33.56,73.2,33.56L73.2,33.56z"/>
				</g>
			</g>
			<g>
				<g>
					<path class="st2" d="M34.87,39.99c1.16,0,1.16-1.8,0-1.8C33.71,38.19,33.71,39.99,34.87,39.99L34.87,39.99z"/>
				</g>
			</g>
			<g>
				<g>
					<path class="st2" d="M33.29,60.62c1.16,0,1.16-1.8,0-1.8C32.13,58.82,32.13,60.62,33.29,60.62L33.29,60.62z"/>
				</g>
			</g>
			<g>
				<g>
					<path class="st2" d="M32.17,79.37c1.16,0,1.16-1.8,0-1.8C31.01,77.57,31.01,79.37,32.17,79.37L32.17,79.37z"/>
				</g>
			</g>
			<g>
				<g>
					<path class="st2" d="M18,47.63c1.16,0,1.16-1.8,0-1.8C16.84,45.83,16.84,47.63,18,47.63L18,47.63z"/>
				</g>
			</g>
			<g>
				<g>
					<path class="st2" d="M20.5,64.75c1.16,0,1.16-1.8,0-1.8C19.34,62.95,19.34,64.75,20.5,64.75L20.5,64.75z"/>
				</g>
			</g>
			<g>
				<g>
					<path class="st2" d="M22.86,33.56c1.16,0,1.16-1.8,0-1.8C21.7,31.76,21.7,33.56,22.86,33.56L22.86,33.56z"/>
				</g>
			</g>
		</g>
	</g>
</g>
</svg>
