<?xml version="1.0" encoding="utf-8"?>
<!-- Generator: Adobe Illustrator 23.0.3, SVG Export Plug-In . SVG Version: 6.00 Build 0)  -->
<svg version="1.1" xmlns="http://www.w3.org/2000/svg" xmlns:xlink="http://www.w3.org/1999/xlink" x="0px" y="0px"
	 viewBox="0 0 100 100" style="enable-background:new 0 0 100 100;" xml:space="preserve">
<style type="text/css">
	.st0{fill:#F2D2C6;}
	.st1{fill:none;stroke:#026E59;stroke-width:1.656;stroke-linecap:round;stroke-linejoin:round;stroke-miterlimit:10;}
	.st2{display:none;fill:none;stroke:#026E59;stroke-width:1.656;stroke-linecap:round;stroke-linejoin:round;stroke-miterlimit:10;}
</style>
<g id="Layer_1">
	<path class="st0" d="M70.5,35.2c-0.6-1.3-1.6-2.8-2-3.8c-0.5-1.3-1.1-1.6-1.9-2.7c-0.2-0.2-0.2-0.6-0.4-0.8c-0.5-0.6-2-2.3-2.6-2.9
		c-0.4-0.4-7.4-4-9.4-4.6c-0.5-0.2-2-0.2-2.5-0.1c-1.7,0.1-7.4,3.1-8.8,4.1c-0.3,0.2-0.6,0.4-0.8,0.7c-1.2,1.2-4,3.2-4.6,4.8
		c-0.4,1-1,1.5-1.4,2.5c-0.2,0.6-1.1,3.4-1.4,4c-0.7,1.7-1.2,3.5-1,4.9c0,0,5.1,49.9,6.2,50.9c3.5,3.5,22.2,3.6,25.7,0
		c1.1-1.1,6.2-50.9,6.2-50.9C72.1,38.8,71.3,37,70.5,35.2z"/>
	<g>
		<path class="st1" d="M29.2,34.2c0,0,5.5,53.6,6.6,54.8c3.8,3.8,23.9,3.8,27.7,0c1.2-1.2,6.6-54.8,6.6-54.8"/>
		<line class="st1" x1="68.7" y1="9.2" x2="46.6" y2="84.2"/>
		<path class="st1" d="M23.8,20c5.7,1.3,11.6,1.4,17.4,0.6c1-0.1,2-0.3,2.8-0.9c0.8-0.6,1.3-1.6,1-2.5c-0.2-0.7-0.9-1.2-1.5-1.5
			c-1.9-1-4.2-1.2-6.4-1c-2.3,0.2-4.7,1.1-6,3c-1.4,2.2-1,5.2,0.6,7.3s4,3.4,6.4,4.4c1.9,0.8,4,1.3,6,1.3c2.1,0,4.2-0.7,5.6-2.2
			c0.2-0.2,0.4-0.5,0.4-0.8c0-0.2-0.2-0.4-0.4-0.6c-1.7-1.4-4.2-1.3-6.4-0.6c-2.1,0.7-4.3,2-4.6,4.2c-0.3,1.9,0.9,3.6,2.3,4.9
			c2.2,2,5.1,3.2,8,3.4c1.3,0.1,2.9-0.4,3-1.6c-1.2-1.4-3.7-1-4.7,0.5c-1.1,1.5-0.8,3.6,0.2,5.1s2.6,2.5,4.3,3.2"/>
	</g>
</g>
<g id="Layer_2">
	<path class="st2" d="M28.6,30.8c0,0,5.9,57.3,7.1,58.6c4,4,25.5,4.1,29.6,0c1.3-1.3,7.1-58.6,7.1-58.6"/>
	<line class="st2" x1="68.1" y1="9.2" x2="47.1" y2="80.5"/>
	<path class="st2" d="M25.4,19.4c5.4,1.3,11,1.4,16.5,0.5c0.9-0.1,1.9-0.3,2.6-0.9s1.3-1.5,1-2.4c-0.2-0.7-0.8-1.1-1.5-1.5
		c-1.8-1-4-1.2-6.1-0.9c-2.2,0.2-4.5,1-5.7,2.8c-1.4,2.1-0.9,5,0.6,7s3.8,3.2,6.1,4.1c1.8,0.7,3.8,1.3,5.7,1.2c2,0,4-0.7,5.3-2.1
		c0.2-0.2,0.4-0.5,0.4-0.8c0-0.2-0.2-0.4-0.4-0.5c-1.6-1.3-4-1.2-6-0.6c-2,0.6-4,1.9-4.4,4c-0.3,1.8,0.8,3.4,2.2,4.6
		c2.1,1.9,4.8,3,7.6,3.2c1.2,0.1,2.7-0.4,2.8-1.5c-1.1-1.3-3.5-1-4.5,0.4s-0.8,3.4,0.2,4.9c0.9,1.4,2.5,2.4,4.1,3.1"/>
</g>
</svg>
