<svg xmlns="http://www.w3.org/2000/svg" width="16" height="16" viewBox="0 0 64 64">
  <defs>
    <style>
      .cls-1 {
        fill: #036d58;
        fill-rule: evenodd;
      }
    </style>
  </defs>
  <path id="A" class="cls-1" d="M8.953,59.45h5.005a4.34,4.34,0,0,0,4.37-3.1l2.7-7.23H42.481l2.781,7.309a4.368,4.368,0,0,0,4.449,3.019h5.164c2.86,0,3.972-1.748,3.019-4.37L39.065,6.855a4.4,4.4,0,0,0-4.449-3.019H28.975a4.334,4.334,0,0,0-4.449,3.019L5.934,55.081C4.981,57.7,6.093,59.45,8.953,59.45Zm14.539-20.26,8.342-22.4,8.1,22.4H23.492Z"/>
</svg>
