<svg xmlns="http://www.w3.org/2000/svg" width="31" height="62"><rect id="backgroundrect" width="100%" height="100%" x="0" y="0" fill="none" stroke="none" style="" class="close-btn"/>
    
<g class="currentLayer" style=""><title>Layer 1</title><path fill="#036d58" fill-rule="nonzero" d="M18.877 14.313a241.712 241.712 0 0 1 11.272 11.774c.291.327.382.81.253 1.361-.127.552-.458 1.106-.93 1.56-.477.457-1.04.757-1.588.846-.541.087-.988-.04-1.279-.373a239.55 239.55 0 0 0-11.158-11.655A239.922 239.922 0 0 0 4.66 29.886a1.25 1.25 0 0 1-.065.072c-.61.613-1.835.404-2.789-.474-.994-.917-1.331-2.227-.752-2.92a242.154 242.154 0 0 1 10.847-12.132A239.814 239.814 0 0 0 .429 4.34a1.251 1.251 0 0 1-.072-.064C-.26 3.669-.06 2.443.814 1.484c.91-1 2.218-1.346 2.916-.77a242.06 242.06 0 0 1 11.6 10.205A241.6 241.6 0 0 1 26.594.305c.329-.29.812-.377 1.363-.245.55.131 1.102.465 1.553.94.454.48.75 1.045.836 1.593.084.542-.046.989-.381 1.277a239.424 239.424 0 0 0-11.09 10.443z" id="svg_1" class="" opacity="1" fill-opacity="1"/><path fill="#2B3936" fill-rule="nonzero" d="M19.175582766532898,46.13331401348114 a241.71200561523438,241.71200561523438 0 0 1 11.272000312805176,11.77400016784668 c0.29100000858306885,0.3269999921321869 0.38199999928474426,0.8100000023841858 0.2529999911785126,1.3609999418258667 c-0.12700000405311584,0.5519999861717224 -0.4580000042915344,1.1059999465942383 -0.9300000071525574,1.559999942779541 c-0.47699999809265137,0.4569999873638153 -1.0399999618530273,0.7570000290870667 -1.5880000591278076,0.8460000157356262 c-0.5410000085830688,0.08699999749660492 -0.9879999756813049,-0.03999999910593033 -1.2790000438690186,-0.37299999594688416 a239.5500030517578,239.5500030517578 0 0 0 -11.157999992370605,-11.654999732971191 A239.9219970703125,239.9219970703125 0 0 0 4.958579897880554,61.70631968975067 a1.25,1.25 0 0 1 -0.06499999761581421,0.07199999690055847 c-0.6100000143051147,0.6129999756813049 -1.8350000381469727,0.40400001406669617 -2.7890000343322754,-0.4740000069141388 c-0.9940000176429749,-0.9169999957084656 -1.3309999704360962,-2.2269999980926514 -0.7519999742507935,-2.9200000762939453 a242.1540069580078,242.1540069580078 0 0 1 10.847000122070312,-12.131999969482422 A239.81399536132812,239.81399536132812 0 0 0 0.7275804281234741,36.1603182554245 a1.2510000467300415,1.2510000467300415 0 0 1 -0.07199999690055847,-0.06400000303983688 C0.03858029842376709,35.48931682109833 0.2385801076889038,34.26331889629364 1.11258065700531,33.30431926250458 c0.9100000262260437,-1 2.2179999351501465,-1.3459999561309814 2.9159998893737793,-0.7699999809265137 a242.05999755859375,242.05999755859375 0 0 1 11.600000381469727,10.204999923706055 A241.60000610351562,241.60000610351562 0 0 1 26.892581820487976,32.12531840801239 c0.32899999618530273,-0.28999999165534973 0.8119999766349792,-0.37700000405311584 1.3630000352859497,-0.24500000476837158 c0.550000011920929,0.13099999725818634 1.1019999980926514,0.4650000035762787 1.5529999732971191,0.9399999976158142 c0.45399999618530273,0.47999998927116394 0.75,1.0449999570846558 0.8360000252723694,1.593000054359436 c0.08399999886751175,0.5419999957084656 -0.04600000008940697,0.9890000224113464 -0.38100001215934753,1.2769999504089355 a239.4239959716797,239.4239959716797 0 0 0 -11.09000015258789,10.442999839782715 z" class="" id="svg_2"/></g></svg>