<svg xmlns="http://www.w3.org/2000/svg" width="20" height="20" viewBox="0 0 20 20">
    <path fill="#036D58" fill-rule="evenodd" d="M10 8.714l1.928-1.928a.91.91 0 0 1 1.286 1.286L11.286 10l1.928 1.928a.91.91 0 0 1-1.286 1.286L10 11.286l-1.928 1.928a.91.91 0 0 1-1.286-1.286L8.714 10 6.786 8.072a.91.91 0 0 1 1.286-1.286L10 8.714zm7.071 8.357c-3.905 3.905-10.237 3.905-14.142 0-3.905-3.905-3.905-10.237 0-14.142 3.905-3.905 10.237-3.905 14.142 0 3.905 3.905 3.905 10.237 0 14.142zm-1.286-1.286a8.182 8.182 0 1 0-11.57-11.57 8.182 8.182 0 0 0 11.57 11.57z"/>
</svg>
