<svg xmlns="http://www.w3.org/2000/svg" width="16" height="19" viewBox="0 0 16 19">
    <path fill="#006D58" fill-rule="evenodd" d="M14.222 10.814c.83-2.153.235-4.542-1.355-5.438a2.26 2.26 0 0 0-1.896-.18c-.904.312-1.68 1.158-2.128 2.32-.063.164-.123.329-.18.493a.695.695 0 0 1-.69.464.696.696 0 0 1-.641-.477 13.69 13.69 0 0 0-.175-.48c-.448-1.162-1.223-2.008-2.128-2.32a2.302 2.302 0 0 0-.755-.13c-.39 0-.776.103-1.141.31-1.59.896-2.185 3.284-1.355 5.437C3.408 15.04 6.98 17.065 8 17.571c1.02-.51 4.599-2.548 6.222-6.757zm-.65-6.608c2.196 1.238 3.04 4.283 1.96 7.081-2.11 5.472-7.048 7.572-7.257 7.658a.716.716 0 0 1-.559-.003c-.23-.099-5.166-2.256-7.248-7.655-1.08-2.799-.236-5.843 1.96-7.081A3.707 3.707 0 0 1 5.5 3.92C6.504 4.268 7.381 5.031 8 6.075c.62-1.044 1.497-1.808 2.5-2.155a3.709 3.709 0 0 1 3.071.286zM4.42 2.812a.59.59 0 0 1-.6-.58c0-.32.27-.58.6-.58 1.369 0 2.328.366 2.98.857V.58C7.4.26 7.67 0 8 0c.33 0 .6.26.6.58V2.51c.652-.49 1.611-.858 2.98-.858.33 0 .6.26.6.58a.59.59 0 0 1-.6.58c-2.731 0-2.983 1.708-2.985 1.725 0 .004-.003.007-.004.011a.562.562 0 0 1-.058.178l-.013.024c-.03.053-.07.1-.115.14l-.021.018A.593.593 0 0 1 8.226 5l-.027.01A.626.626 0 0 1 8 5.044l-.037-.001a.626.626 0 0 1-.163-.035L7.774 5a.593.593 0 0 1-.158-.092l-.021-.018a.579.579 0 0 1-.186-.342c0-.004-.003-.007-.004-.01-.027-.171-.342-1.725-2.985-1.725z"/>
</svg>
