<svg xmlns="http://www.w3.org/2000/svg" width="22" height="22" viewBox="0 0 22 22">
    <g fill="none" fill-rule="evenodd">
        <path fill="#C0D9D4" d="M19.318 21H4.682C3.201 21 2 19.883 2 18.506v-8.012C2 9.117 3.2 8 4.682 8h14.636C20.8 8 22 9.117 22 10.494v8.012C22 19.883 20.8 21 19.318 21"/>
        <path fill="#2B3936" fill-rule="nonzero" d="M17.852 19.152H3.148c-1.17 0-2.123-.846-2.221-1.917h19.146c-.098 1.07-1.05 1.917-2.22 1.917M13.19 8.207c.014-.066.045-.114.093-.14a.421.421 0 0 1 .203-.04h.051l.037.004a.243.243 0 0 1-.014.053.77.77 0 0 1-.35.374.472.472 0 0 1-.02-.251m-5.402.251a.767.767 0 0 1-.35-.373.234.234 0 0 1-.014-.054l.037-.003c.115-.006.2.008.254.038.048.027.079.075.093.14a.472.472 0 0 1-.02.252m-4.64-1.595h7.015c-.05.738-.6 1.453-1.361 1.664a1.73 1.73 0 0 1-.418.064 1 1 0 0 0 .024-.499.776.776 0 0 0-.374-.515 1.06 1.06 0 0 0-.605-.12c-.127.005-.313.03-.456.163-.169.156-.21.403-.11.661.095.243.278.455.514.61-.073.05-.151.097-.23.145-.081.05-.163.1-.24.152-.483.319-.733.696-.724 1.092.002.156.139.28.305.28h.007c.168-.003.303-.134.3-.292-.007-.262.289-.496.465-.613.073-.048.147-.094.222-.14a3.47 3.47 0 0 0 .537-.377c.301.05.627.03.957-.062A2.503 2.503 0 0 0 10.5 7.838c.31.579.849 1.052 1.523 1.238.33.092.657.113.957.062.164.15.353.265.537.377.075.046.15.092.222.14.176.117.472.351.466.613-.004.158.13.289.3.292h.006c.166 0 .303-.124.306-.28.008-.396-.242-.773-.724-1.092a8.316 8.316 0 0 0-.24-.152c-.08-.048-.158-.096-.23-.145.236-.155.418-.368.513-.61.1-.258.06-.505-.11-.66-.16-.15-.382-.162-.455-.164a1.049 1.049 0 0 0-.606.12.774.774 0 0 0-.374.515 1 1 0 0 0 .024.5 1.751 1.751 0 0 1-.418-.065 1.91 1.91 0 0 1-1.361-1.664h7.016c1.236 0 2.241.94 2.241 2.097v6.332H.907V8.96c0-1.156 1.005-2.097 2.241-2.097m2.52-2.093c-.262-.476-.293-1.005-.074-1.318.443-.631 1.332-.785 2.071-.356C9.048 3.9 9.67 5.28 9.915 6.015h-1.85c-1.572-.058-2.2-.89-2.397-1.245m7.667-1.674c.739-.43 1.628-.276 2.07.356.22.313.19.842-.073 1.318-.197.355-.825 1.187-2.397 1.245h-1.85c.245-.736.867-2.115 2.25-2.919m4.517 2.919h-2.441c.294-.241.543-.525.726-.856.415-.75.426-1.602.028-2.172-.72-1.027-2.143-1.29-3.309-.612-1.25.727-1.962 1.813-2.356 2.67-.394-.857-1.106-1.943-2.356-2.67-1.166-.677-2.589-.414-3.309.612-.398.57-.387 1.422.028 2.172.183.331.432.615.726.856h-2.44C1.411 6.015 0 7.335 0 8.96v8.096C0 18.679 1.412 20 3.148 20h14.704C19.588 20 21 18.679 21 17.056V8.96c0-1.624-1.412-2.945-3.148-2.945"/>
    </g>
</svg>
