<?xml version="1.0" encoding="UTF-8"?>
<svg width="22px" height="22px" viewBox="0 0 22 22" version="1.1" xmlns="http://www.w3.org/2000/svg" xmlns:xlink="http://www.w3.org/1999/xlink">
    <!-- Generator: sketchtool 53 (72520) - https://sketchapp.com -->
    <title>59BB2DD8-E12F-4E94-A4A5-F91A36D738FA</title>
    <desc>Created with sketchtool.</desc>
    <g id="Symbols" stroke="none" stroke-width="1" fill="none" fill-rule="evenodd">
        <g id="Desktop/Icon/Nav/GiftCards" transform="translate(0.000000, 0.000000)" fill="#2B3936" fill-rule="nonzero">
            <path d="M17.8522222,19.1515785 L3.14823133,19.1515785 C1.97773507,19.1515785 1.02537468,18.3057023 0.926510603,17.2345702 L20.0734894,17.2345702 C19.9746253,18.3057023 19.0222649,19.1515785 17.8522222,19.1515785 M13.1906448,8.20694145 C13.205157,8.14076457 13.2364488,8.09325297 13.2836134,8.0665277 C13.3298709,8.04022663 13.3983501,8.02665189 13.4872371,8.02665189 C13.5035633,8.02665189 13.5207964,8.0270761 13.5380296,8.02792452 C13.5534488,8.02877294 13.5656934,8.03004557 13.575217,8.03089399 C13.5729495,8.04531716 13.568868,8.06355822 13.5607049,8.08392034 C13.5022027,8.23324252 13.3752214,8.3668689 13.2115061,8.45807421 C13.1820282,8.37450469 13.1738652,8.28457202 13.1906448,8.20694145 M7.78894744,8.45807421 C7.62477865,8.3668689 7.49779726,8.23324252 7.43974863,8.08476876 C7.43113203,8.06398243 7.42705049,8.04531716 7.42478297,8.03089399 C7.43430657,8.03004557 7.44700471,8.02877294 7.46242388,8.02792452 C7.57716063,8.02240978 7.66151255,8.03556031 7.71593314,8.06610348 C7.76355116,8.09325297 7.794843,8.14076457 7.80935516,8.20694145 C7.82658835,8.28457202 7.81797175,8.37450469 7.78894744,8.45807421 M3.14823133,6.86304183 L8.04381722,6.86304183 C8.04925928,6.86346604 8.05470133,6.86346604 8.06014339,6.86346604 L10.1644063,6.86346604 C10.1140673,7.6007443 9.56351229,8.31638782 8.80298449,8.52679635 C8.68870125,8.55861215 8.54357967,8.58745848 8.38485293,8.59127638 C8.43428497,8.42668261 8.44471559,8.252332 8.4093422,8.09240455 C8.36036367,7.86969391 8.22748672,7.68728329 8.03474712,7.5769885 C7.87012482,7.48323793 7.67012914,7.44124107 7.43022502,7.45651265 C7.30279014,7.4624516 7.11730661,7.4862074 6.97399905,7.61983379 C6.80529521,7.77636755 6.76447977,8.0232582 6.86425085,8.28117833 C6.95948689,8.52382687 7.14179588,8.73635645 7.37761845,8.89119337 C7.30460415,8.94040182 7.2266013,8.98791342 7.14769144,9.03627345 C7.06651406,9.0859061 6.98533667,9.13596297 6.90733382,9.18771668 C6.42525807,9.50672315 6.17492334,9.8838465 6.18353993,10.2796351 C6.18626096,10.4357447 6.32276595,10.5600384 6.48920226,10.5600384 L6.49555133,10.5600384 C6.66425517,10.5566447 6.79894614,10.426412 6.7953181,10.2681814 C6.78942254,10.0060192 7.08465426,9.77185487 7.26106768,9.6547727 C7.33362847,9.60683689 7.40845679,9.56144634 7.4828316,9.51520737 C7.66695461,9.40321573 7.85515916,9.2874062 8.02023496,9.13808402 C8.32136224,9.1885651 8.6474323,9.16777877 8.97667689,9.07614925 C9.65149225,8.88992074 10.1898026,8.41650156 10.5,7.83787811 C10.8106509,8.41650156 11.3485078,8.88992074 12.0233231,9.07614925 C12.3534747,9.16777877 12.6795448,9.1885651 12.979765,9.13808402 C13.1443873,9.2874062 13.3330454,9.40321573 13.5171684,9.51520737 C13.5915432,9.56144634 13.666825,9.60683689 13.7393858,9.6547727 C13.9153457,9.77185487 14.2105775,10.0060192 14.2046819,10.2681814 C14.2010539,10.426412 14.3357448,10.5566447 14.5044487,10.5600384 L14.5107977,10.5600384 C14.6772341,10.5600384 14.813739,10.4357447 14.8169136,10.2796351 C14.8250767,9.8838465 14.5747419,9.50672315 14.0931197,9.18771668 C14.0146633,9.13596297 13.9334859,9.0859061 13.8523086,9.03627345 C13.7733987,8.98791342 13.6953958,8.94040182 13.6223815,8.89119337 C13.8586576,8.73635645 14.0405131,8.52340266 14.1362027,8.28032991 C14.2355202,8.0232582 14.1951583,7.77636755 14.0264545,7.620258 C13.8659137,7.47093582 13.6436963,7.45948213 13.5711355,7.45651265 C13.3262428,7.44081685 13.1298752,7.48323793 12.9652529,7.57741271 C12.7725133,7.68728329 12.6396363,7.86969391 12.5906578,8.09240455 C12.5552844,8.252332 12.565715,8.42668261 12.6151471,8.59127638 C12.4568738,8.58745848 12.3108452,8.55818794 12.1970155,8.52679635 C11.4369412,8.31638782 10.8863862,7.6007443 10.8355937,6.86346604 L12.9398566,6.86346604 C12.9452987,6.86346604 12.9507407,6.86346604 12.9561828,6.86304183 L17.8522222,6.86304183 C19.0880232,6.86304183 20.0929901,7.80351704 20.0929901,8.95991551 L20.0929901,15.2921092 L0.907009891,15.2921092 L0.907009891,8.95991551 C0.907009891,7.80351704 1.91243035,6.86304183 3.14823133,6.86304183 M5.66835831,4.76956183 C5.40577895,4.29402159 5.37539412,3.7650308 5.59443701,3.45238748 C6.03660433,2.82073769 6.92638103,2.66717341 7.66514059,3.09605046 C9.04787716,3.89992981 9.66963245,5.27903893 9.91543213,6.01462035 L8.06467844,6.01462035 C6.4928303,5.9573519 5.86517946,5.12547464 5.66835831,4.76956183 M13.3348594,3.09605046 C14.073619,2.6667492 14.9633957,2.82031348 15.405563,3.45238748 C15.6246059,3.7650308 15.5942211,4.29402159 15.3316417,4.76956183 C15.1348205,5.12547464 14.5071697,5.9573519 12.9353216,6.01462035 L11.0845679,6.01462035 C11.3303676,5.27903893 11.9521228,3.89992981 13.3348594,3.09605046 M17.8522222,6.01462035 L15.4110051,6.01462035 C15.7053298,5.77366865 15.9538505,5.49029588 16.1370665,5.1594115 C16.552477,4.4089827 16.5629076,3.55674333 16.1647303,2.98745251 C15.4450179,1.9600141 14.0223729,1.69700345 12.8564117,2.37531642 C11.6060986,3.10241363 10.8940958,4.18839312 10.5,5.04572302 C10.1059042,4.18839312 9.39435494,3.10241363 8.1435883,2.37531642 C6.97808059,1.69785187 5.55498208,1.96128674 4.83526973,2.98745251 C4.43709239,3.55674333 4.447523,4.4089827 4.86293353,5.1594115 C5.04614953,5.49029588 5.29512374,5.77366865 5.58899495,6.01462035 L3.14823133,6.01462035 C1.4122144,6.01462035 0,7.33561259 0,8.95991551 L0,17.0555533 C0,18.6790078 1.4122144,20 3.14823133,20 L17.8522222,20 C19.5877856,20 21,18.6790078 21,17.0555533 L21,8.95991551 C21,7.33561259 19.5877856,6.01462035 17.8522222,6.01462035" id="gift-cards"></path>
        </g>
    </g>
</svg>