<svg xmlns="http://www.w3.org/2000/svg" width="22" height="22" viewBox="0 0 22 22">
  <g style="transform: translateY(4px)">
    <path fill="#2B3936" fill-rule="nonzero" d="M19.892 11.567V3.085c0-1.211-.995-2.196-2.218-2.196H3.117C1.893.889.898 1.874.898 3.085v8.482c0 1.211.995 2.196 2.219 2.196h14.557c1.223 0 2.218-.985 2.218-2.196zM17.674 0c1.718 0 3.116 1.384 3.116 3.085v8.482c0 1.701-1.398 3.085-3.116 3.085H3.117C1.399 14.652 0 13.268 0 11.567V3.085C0 1.384 1.399 0 3.117 0h14.557zM4.042 10.11a.452.452 0 0 1 .635 0 .44.44 0 0 1 0 .63l-2.02 1.998a.45.45 0 0 1-.634 0 .44.44 0 0 1 0-.628l2.02-2zm12.76 0l2.018 2a.44.44 0 0 1 0 .628.45.45 0 0 1-.634 0l-2.02-1.999a.44.44 0 0 1 0-.628.452.452 0 0 1 .635 0zm1.976-7.065a.442.442 0 0 1-.144.612l-8.001 4.935a.449.449 0 0 1-.475 0L2.156 3.657a.442.442 0 0 1-.143-.612.45.45 0 0 1 .618-.142l7.764 4.788 7.765-4.788a.45.45 0 0 1 .618.142z"/>
  </g>
</svg>
