<?xml version="1.0" encoding="UTF-8"?>
<svg width="18px" height="25px" viewBox="0 0 18 25" version="1.1" xmlns="http://www.w3.org/2000/svg" xmlns:xlink="http://www.w3.org/1999/xlink">
    <!-- Generator: sketchtool 53 (72520) - https://sketchapp.com -->
    <title>8BCADE83-317D-4420-BCA9-C6F5BE4C0D4A</title>
    <desc>Created with sketchtool.</desc>
    <g id="Symbols" stroke="none" stroke-width="1" fill="none" fill-rule="evenodd">
        <g id="mobile/nav/icon/menu" transform="translate(-2.000000, 0.000000)" fill="#2B3936" fill-rule="nonzero">
            <path d="M17.7911171,22.866098 C18.2976029,22.3694449 18.5750029,21.7109551 18.5739171,21.0110776 L18.5532886,7.20613878 L18.5532886,7.20666939 C18.5511171,5.76234286 17.3481457,4.58862857 15.8704886,4.58862857 L15.8666886,4.58862857 L15.4530314,4.58915918 L15.45466,5.6296898 C15.45466,5.73475102 15.4123171,5.83609796 15.3363171,5.91091429 C15.2597743,5.98573061 15.1560886,6.02817959 15.04806,6.02817959 L6.62617429,6.03985306 L6.62563143,6.03985306 C6.40088857,6.03985306 6.21903143,5.86209796 6.21848857,5.64242449 L6.21631714,4.60242449 L5.76466,4.6029551 C4.28483143,4.60507755 3.08348857,5.78303673 3.08566,7.22842449 L3.10628857,21.0333633 C3.10737429,21.7332408 3.38748857,22.3912 3.89451714,22.8857306 C4.40154571,23.3797306 5.07360286,23.6508735 5.78908857,23.6508735 L5.79234571,23.6508735 L15.8949171,23.6365469 C16.6114886,23.6354857 17.2851743,23.3622204 17.7911171,22.866098 Z M7.02843143,2.93364898 L7.02951714,3.54013878 L14.6365743,3.52899592 L14.6360314,2.92250612 L12.4705743,2.9256898 L10.8327743,2.92781224 L7.02843143,2.93364898 Z M9.95986,1.67981224 C9.82686,1.81034286 9.72860286,1.96475102 9.66834571,2.13348571 L11.9934029,2.13030204 C11.9331457,1.96209796 11.8338029,1.80715918 11.7008029,1.6776898 C11.4690029,1.45164898 11.1601171,1.32642449 10.8327743,1.32642449 L10.83006,1.32642449 C10.5010886,1.3269551 10.1922029,1.4527102 9.95986,1.67981224 Z M19.6390029,7.20454694 L19.6596314,21.0094857 C19.66126,21.9927102 19.2709457,22.9186286 18.5598029,23.6153224 C17.8492029,24.3120163 16.9035457,24.6961796 15.8970886,24.6977714 L5.79451714,24.712098 L5.78908857,24.712098 C3.71320286,24.712098 2.02383143,23.0640163 2.02057429,21.0349551 L1.99994571,7.23001633 C1.99668857,5.19936327 3.68497429,3.54491429 5.76248857,3.54173061 L6.21523143,3.5412 L6.21360286,2.53675102 C6.21306,2.31654694 6.39546,2.13879184 6.62020286,2.13826122 L8.82637429,2.13507755 C8.90454571,1.75250612 9.09454571,1.4007102 9.38334571,1.11842449 C9.76931714,0.740097959 10.2823171,0.531036735 10.8289743,0.530506122 L10.8327743,0.530506122 C11.37726,0.530506122 11.8897171,0.73797551 12.2756886,1.11417959 C12.5644886,1.39593469 12.75666,1.74666939 12.8353743,2.1287102 L15.0426314,2.12605714 L15.0431743,2.12605714 C15.2679171,2.12605714 15.4497743,2.30381224 15.4503171,2.52348571 L15.45086,3.52793469 L15.8645171,3.52740408 L15.8704886,3.52740408 C17.9463743,3.52740408 19.6357457,5.17548571 19.6390029,7.20454694 Z M4.89929143,9.89666122 C4.59963429,9.89666122 4.35697714,9.66000816 4.35643429,9.36657959 C4.35589143,9.07368163 4.59854857,8.83596735 4.89874857,8.83543673 L16.7449771,8.81898776 L16.74552,8.81898776 C17.0451771,8.81898776 17.2878343,9.05564082 17.2883771,9.34906939 C17.28892,9.64196735 17.0462629,9.87968163 16.7460629,9.88021224 L4.89983429,9.89666122 L4.89929143,9.89666122 Z M4.90781429,15.5608408 C4.60815714,15.5608408 4.3655,15.3241878 4.36495714,15.0312898 C4.36441429,14.7378612 4.60707143,14.5001469 4.90672857,14.4996163 L16.7529571,14.4826367 L16.7540429,14.4826367 C17.0537,14.4826367 17.2963571,14.7192898 17.2969,15.0121878 C17.2974429,15.3056163 17.0547857,15.5433306 16.7551286,15.5438612 L4.9089,15.5608408 L4.90781429,15.5608408 Z M16.7626743,20.1461796 C17.0623314,20.1461796 17.3049886,20.3828327 17.3055314,20.6757306 C17.3060743,20.9691592 17.0634171,21.2068735 16.76376,21.2074041 L4.91753143,21.2243837 L4.91644571,21.2243837 C4.61678857,21.2243837 4.37413143,20.9877306 4.37358857,20.6948327 C4.37304571,20.4014041 4.61570286,20.1636898 4.91536,20.1631592 L16.7615886,20.1461796 L16.7626743,20.1461796 Z" id="Menu-Icon"></path>
        </g>
    </g>
</svg>