<?xml version="1.0" encoding="UTF-8"?>
<svg width="78px" height="78px" viewBox="0 0 78 78" version="1.1" xmlns="http://www.w3.org/2000/svg" xmlns:xlink="http://www.w3.org/1999/xlink">
    <!-- Generator: sketchtool 53.2 (72643) - https://sketchapp.com -->
    <title>9AEE93F0-57E6-47DA-AEAF-A801B068A8BE</title>
    <desc>Created with sketchtool.</desc>
    <g id="Style-Guide" stroke="none" stroke-width="1" fill="none" fill-rule="evenodd">
        <g id="Jamba-Styles" transform="translate(-171.000000, -5823.000000)" fill="#2B3936" fill-rule="nonzero">
            <path d="M209.998807,5828.2431 C201.35202,5828.2431 192.703643,5831.5336 186.117962,5838.11939 C172.952962,5851.28618 172.952962,5872.71183 186.117962,5885.88022 C199.289323,5899.05019 220.714653,5899.0486 233.879653,5885.88022 C247.047833,5872.71183 247.047833,5851.28618 233.879653,5838.11939 C227.297153,5831.53519 218.647185,5828.2431 209.998807,5828.2431 Z M209.998807,5901 C200.008166,5901 190.017525,5897.19739 182.407652,5889.59058 C167.197449,5874.37856 167.197449,5849.62105 182.407652,5834.40902 C197.625807,5819.1954 222.378169,5819.19858 237.589962,5834.40902 C252.803346,5849.62105 252.803346,5874.37856 237.589962,5889.59058 C229.983271,5897.19739 219.991039,5901 209.998807,5901 Z M198.391452,5841.63848 C198.503031,5840.67882 200.119785,5839.94679 202.001824,5840.00304 C203.817826,5840.05749 205.217116,5840.82433 205.217116,5841.73847 C205.217116,5841.77239 205.214839,5841.80721 205.211423,5841.84291 C203.631103,5855.55497 203.407945,5869.46609 204.548782,5883.18618 C204.653529,5884.15031 203.165432,5884.95732 201.281116,5884.99838 C199.3968,5885.03945 197.803956,5884.29314 197.724256,5883.33348 C196.570896,5869.49555 196.79633,5855.46748 198.391452,5841.63848 Z M220.838364,5841.63848 C222.433486,5855.46748 222.65892,5869.49555 221.50556,5883.33348 C221.42586,5884.29314 219.833016,5885.03945 217.9487,5884.99838 C216.064384,5884.95732 214.576287,5884.15031 214.681034,5883.18618 C215.821871,5869.46609 215.598713,5855.55497 214.018393,5841.84291 C214.014977,5841.80721 214.0127,5841.77239 214.0127,5841.73847 C214.0127,5840.82433 215.41199,5840.05749 217.227992,5840.00304 C219.110031,5839.94679 220.726785,5840.67882 220.838364,5841.63848 Z" id="pause"></path>
        </g>
    </g>
</svg>