<?xml version="1.0" encoding="UTF-8"?>
<svg width="78px" height="78px" viewBox="0 0 78 78" version="1.1" xmlns="http://www.w3.org/2000/svg" xmlns:xlink="http://www.w3.org/1999/xlink">
    <!-- Generator: sketchtool 53.2 (72643) - https://sketchapp.com -->
    <title>0939C3E5-0EC8-40AC-A22B-E0890D7AEA9E</title>
    <desc>Created with sketchtool.</desc>
    <g id="Style-Guide" stroke="none" stroke-width="1" fill="none" fill-rule="evenodd">
        <g id="Jamba-Styles" transform="translate(-52.000000, -5823.000000)" fill="#ffffff" fill-rule="nonzero">
            <path d="M90.9988072,5828.2431 C82.3520201,5828.2431 73.7036425,5831.5336 67.1179619,5838.11939 C53.952962,5851.28618 53.952962,5872.71183 67.1179619,5885.88022 C80.2893232,5899.05019 101.714653,5899.0486 114.879653,5885.88022 C128.047833,5872.71183 128.047833,5851.28618 114.879653,5838.11939 C108.297153,5831.53519 99.6471848,5828.2431 90.9988072,5828.2431 Z M90.9988072,5901 C81.0081659,5901 71.0175245,5897.19739 63.4076521,5889.59058 C48.1974493,5874.37856 48.1974493,5849.62105 63.4076521,5834.40902 C78.6258066,5819.1954 103.378169,5819.19858 118.589962,5834.40902 C133.803346,5849.62105 133.803346,5874.37856 118.589962,5889.59058 C110.983271,5897.19739 100.991039,5901 90.9988072,5901 Z M73.1698197,5844.14545 C72.5286564,5842.89109 73.8225616,5841.52797 75.0556792,5842.15962 L111.214105,5860.6935 C112.261965,5861.23129 112.261965,5862.76871 111.214105,5863.30501 L75.0556792,5881.84038 C73.8225616,5882.47203 72.5286564,5881.10891 73.1698197,5879.85455 L81.9550594,5862.67932 C82.1736049,5862.25326 82.1736049,5861.74525 81.9550594,5861.31919 L73.1698197,5844.14545 Z" id="play"></path>
        </g>
    </g>
</svg>