<svg xmlns="http://www.w3.org/2000/svg" width="16" height="16" viewBox="0 0 64 64">
  <defs>
    <style>
      .cls-1 {
        fill: #036d58;
        fill-rule: evenodd;
      }
    </style>
  </defs>
  <path id="Q" class="cls-1" d="M43.7,63.5a19.283,19.283,0,0,0,6.752-1.171c2.825-1.1,3.583-3.169,2.687-5.03l-0.689-1.516c-0.9-1.929-2.343-2.274-4.341-1.585a12.038,12.038,0,0,1-4,.758c-4.341,0-6.683-2.136-7.51-5.581A24.373,24.373,0,0,0,56.378,25.121c0-13.573-10.472-24.872-25.561-24.872S5.256,11.548,5.256,25.121A24.38,24.38,0,0,0,26.2,49.58l0.207,0.9C28.268,57.779,33.366,63.5,43.7,63.5ZM30.817,40.485c-8.543,0-14.606-6.821-14.606-15.364S22.274,9.757,30.817,9.757s14.538,6.821,14.538,15.364S39.36,40.485,30.817,40.485Z"/>
</svg>
