<svg xmlns="http://www.w3.org/2000/svg" width="20" height="20" viewBox="0 0 20 20">
    <path fill="#2B3936" fill-rule="evenodd" d="M10 17.931c4.374 0 7.931-3.557 7.931-7.931 0-4.374-3.557-7.931-7.931-7.931-4.374 0-7.931 3.557-7.931 7.931 0 4.374 3.557 7.931 7.931 7.931zM10 0c5.514 0 10 4.486 10 10s-4.486 10-10 10S0 15.514 0 10 4.486 0 10 0zm.293 4.604a3.288 3.288 0 0 1 3.018 3.15 3.227 3.227 0 0 1-1.695 2.958c-.393.206-.635.632-.635 1.11a.953.953 0 0 1-1.903 0 3.14 3.14 0 0 1 1.634-2.777c.457-.245.717-.698.696-1.212a1.383 1.383 0 0 0-1.26-1.327c-.41-.034-.79.095-1.076.36-.273.25-.422.595-.422.97a.952.952 0 0 1-1.903 0c0-.903.364-1.743 1.024-2.365a3.288 3.288 0 0 1 2.522-.867zm-.141 8.662c.66 0 1.196.537 1.196 1.196 0 .66-.536 1.197-1.196 1.197a1.198 1.198 0 0 1 0-2.393z"/>
</svg>
