<svg xmlns="http://www.w3.org/2000/svg" width="20" height="21" viewBox="0 0 20 21">
    <path fill="#036D58" fill-rule="evenodd" d="M2.929 3.071c3.905-3.905 10.237-3.905 14.142 0 3.905 3.905 3.905 10.237 0 14.142-3.905 3.905-10.237 3.905-14.142 0-3.905-3.905-3.905-10.237 0-14.142zm1.286 1.286a8.182 8.182 0 1 0 11.57 11.57 8.182 8.182 0 0 0-11.57-11.57zm2.57 2.571a.91.91 0 0 1 1.207-.07l.08.07 1.927 1.928 1.93-1.928a.91.91 0 0 1 1.206-.07l.08.07a.91.91 0 0 1 0 1.286l-1.93 1.928 1.93 1.929a.91.91 0 0 1-1.207 1.356l-.08-.07L10 11.427l-1.927 1.928a.91.91 0 0 1-1.207.07l-.08-.07a.91.91 0 0 1 0-1.285l1.928-1.929-1.927-1.928a.91.91 0 0 1 0-1.286z"/>
</svg>
