<?xml version="1.0" encoding="UTF-8"?>
<svg width="21px" height="20px" viewBox="0 0 21 20" version="1.1" xmlns="http://www.w3.org/2000/svg" xmlns:xlink="http://www.w3.org/1999/xlink">
    <!-- Generator: sketchtool 53 (72520) - https://sketchapp.com -->
    <title>B1891015-ACF4-4423-B405-523FF056381C</title>
    <desc>Created with sketchtool.</desc>
    <g id="Symbols" stroke="none" stroke-width="1" fill="none" fill-rule="evenodd">
        <g id="Nav/icon/rewards" fill="#2B3936" fill-rule="nonzero">
            <path d="M14.9045742,12.0339333 C14.7945742,12.1408 14.7444891,12.2957333 14.7707019,12.4469333 L15.0468721,14.0392 C13.8312551,14.1904 12.2500636,14.2991333 10.3065742,14.2991333 C8.37197846,14.2991333 6.79687207,14.1913333 5.58406356,14.0415333 L5.85414867,12.4576667 C5.88036143,12.3064667 5.82934016,12.152 5.71934016,12.0446667 L1.47427633,7.92913333 L7.33282952,7.07326667 C7.48542526,7.05086667 7.61742526,6.95566667 7.6852976,6.81753333 L10.2995529,1.52133333 L12.9259785,6.81146667 C12.994787,6.94913333 13.1263189,7.04433333 13.2789146,7.06626667 L19.1398082,7.9086 L14.9045742,12.0339333 Z M15.9732125,13.9052667 L15.7981487,12.8944667 C17.0315529,13.0867333 17.5862338,13.2962667 17.8212125,13.4194667 C17.5347444,13.5674 16.9131274,13.7466 15.9732125,13.9052667 L15.9732125,13.9052667 Z M15.7784891,18.2644 L10.5335955,15.5236667 C10.3983189,15.4522667 10.2349572,15.4522667 10.0978082,15.5241333 L4.86087207,18.2774667 L5.42631888,14.9655333 C7.40631888,15.2096 9.58338271,15.2324667 10.3065742,15.2324667 C11.0321061,15.2324667 13.2208721,15.2096 15.2069572,14.9632 L15.7784891,18.2644 Z M2.7919359,13.4194667 C3.02831888,13.2958 3.58674441,13.0853333 4.83091463,12.8916667 L4.65678697,13.9080667 C3.70751037,13.7494 3.08027633,13.5683333 2.7919359,13.4194667 L2.7919359,13.4194667 Z M20.590404,7.43633333 C20.5351699,7.26786667 20.3886593,7.14466667 20.2121912,7.11946667 L13.6561912,6.17726667 L10.718021,0.259933333 C10.6389146,0.1008 10.476021,0 10.2981487,0 L10.2976806,0 C10.1193402,0 9.95691463,0.101266667 9.87827633,0.2604 L6.95414867,6.18566667 L0.400489094,7.14326667 C0.224021009,7.16846667 0.0775103703,7.29213333 0.0227444128,7.46106667 C-0.0320215446,7.63 0.0138507958,7.81526667 0.14163803,7.9394 L4.35534016,12.0241333 C2.06499973,12.4198667 1.72470186,12.9444 1.72470186,13.4157333 C1.72470186,14.133 2.95716994,14.5674667 4.49951037,14.8306667 L3.77865931,19.0526 C3.74870186,19.2276 3.82125505,19.4044667 3.96542526,19.509 C4.04687207,19.5678 4.1432976,19.5976667 4.24019122,19.5976667 C4.31461675,19.5976667 4.38951037,19.5799333 4.45878697,19.544 L10.3168721,16.464 L16.1838508,19.5295333 C16.3411274,19.6116667 16.5325742,19.5986 16.6767444,19.4936 C16.8209146,19.3890667 16.8925316,19.2122 16.8625742,19.0372 L16.1332976,14.8274 C17.6667444,14.5642 18.8889146,14.1302 18.8889146,13.4157333 C18.8889146,12.9700667 18.5612551,12.4245333 16.2545316,12.0241333 L20.4729146,7.91513333 C20.5997657,7.791 20.645638,7.60573333 20.590404,7.43633333 L20.590404,7.43633333 Z" id="rewards-icon"></path>
        </g>
    </g>
</svg>