<svg xmlns="http://www.w3.org/2000/svg" width="20" height="20" viewBox="0 0 20 20">
    <path fill="#036d58" fill-rule="nonzero" d="M3.195 10.792a5.38 5.38 0 0 1 0-7.598 5.357 5.357 0 0 1 3.799-1.57c1.376 0 2.751.523 3.798 1.57a5.38 5.38 0 0 1 0 7.598 5.379 5.379 0 0 1-7.597 0zM2.046 2.046a7.004 7.004 0 0 0 0 9.895 6.974 6.974 0 0 0 4.948 2.046c1.536 0 3.07-.505 4.337-1.508l7.283 7.283a.808.808 0 0 0 1.148 0 .812.812 0 0 0 0-1.149L12.48 11.33c2.172-2.744 1.995-6.751-.538-9.284-2.728-2.728-7.167-2.728-9.895 0zm8.011 2.247c-1.134-1.013-3.874-2.312-6.123.033a.608.608 0 1 0 .879.843c1.993-2.076 4.335-.054 4.434.034a.61.61 0 0 0 .81-.91z"/>
</svg>
