<svg xmlns="http://www.w3.org/2000/svg" width="23" height="22" viewBox="0 0 23 22">
    <path fill="#036d58" fill-rule="evenodd" d="M11.053 0c-6.075 0-11 4.925-11 11s4.925 11 11 11 11-4.925 11-11-4.925-11-11-11zm0 2a9 9 0 1 1 0 18 9 9 0 0 1 0-18zm2.11 5.643l.836-.898a.205.205 0 0 0 .054-.145.204.204 0 0 0-.06-.142C13.046 5.518 11.818 5 10.535 5 7.902 5 5.707 7.166 5.463 9.964H4.239a.185.185 0 0 0-.167.113.212.212 0 0 0 .022.211L6.06 12.93c.071.095.22.095.29 0l1.968-2.64a.212.212 0 0 0 .022-.212.185.185 0 0 0-.167-.113h-1.15C7.26 8.1 8.765 6.667 10.534 6.667c.874 0 1.717.349 2.373.983.073.07.185.068.255-.007zm4.872 4.244a.205.205 0 0 0-.023-.208l-1.967-2.605A.183.183 0 0 0 15.9 9a.183.183 0 0 0-.145.074l-1.967 2.605a.205.205 0 0 0-.023.208c.031.068.096.111.168.111h1.166c-.192 1.9-1.706 3.359-3.528 3.359a3.433 3.433 0 0 1-2.372-.971.178.178 0 0 0-.255.007l-.836.885a.206.206 0 0 0 .005.284C9.061 16.49 10.29 17 11.571 17c2.688 0 4.888-2.182 5.085-5.002h1.212a.185.185 0 0 0 .167-.111z"/>
</svg>
